<?xml version="1.0" encoding="utf-8" standalone="yes"?>
<!DOCTYPE svg PUBLIC "-//W3C//DTD SVG 1.1//EN" "http://www.w3.org/Graphics/SVG/1.1/DTD/svg11.dtd">
<svg width="576" height="948" viewBox="0 0 576 948" style="fill:none;stroke:none;fill-rule:evenodd;clip-rule:evenodd;stroke-linecap:round;stroke-linejoin:round;stroke-miterlimit:1.5;" version="1.1" xmlns="http://www.w3.org/2000/svg" xmlns:xlink="http://www.w3.org/1999/xlink"><style class="text-font-style fontImports" data-font-family="Arial"></style><g id="items" style="isolation: isolate"><g id="blend" style="mix-blend-mode: normal"><g id="g-root-cp_1_g-1_1ur6fnf1y93l6x-fill" data-item-order="-449846" transform="translate(61.9921875, 146)"><g id="cp_1_g-1_1ur6fnf1y93l6x-fill" stroke="none" fill="#dce9ff"><g><path d="M 57.997813 21.88C 77.707813 21.88 93.717813 37.56 93.987813 57L 441.987813 57C 441.717813 31 420.337813 10 393.997813 10L 57.997813 10C 44.737813 10 32.737813 15.31 24.057813 23.91C 15.477812 32.39 10.147813 44.08 10.007813 57L 22.007813 57C 22.277813 37.56 38.287813 21.88 57.997813 21.88ZM 22.008113 57L 10.007813 57L 10.007813 58L 22.008113 58L 22.008113 57ZM 442.007813 57L 94.009713 57L 94.009713 58L 442.007813 58L 442.007813 57ZM 93.990001 58C 93.990001 58.17 94.000001 58.33 94.000001 58.5C 94.000001 78.17 77.880001 94.12 58.000001 94.12C 38.120001 94.12 22.000001 78.17 22.000001 58.5C 22.000001 58.33 22.010001 58.17 22.010001 58L 10.010001 58C 10.010001 58.17 10 58.33 10 58.5C 10 84.73 31.490001 106 58.000001 106L 394.000001 106C 407.260001 106 419.260001 100.69 427.940001 92.09C 436.630001 83.5 442.000001 71.63 442.000001 58.5C 442.000001 58.33 441.990001 58.17 441.990001 58L 93.990001 58Z"></path></g></g></g><g id="g-root-cp_2_g-2_1qbzem31y93itf-fill" data-item-order="-449816" transform="translate(61.9921875, 266)"><g id="cp_2_g-2_1qbzem31y93itf-fill" stroke="none" fill="#dce9ff"><g><path d="M 57.997813 21.88C 77.707813 21.88 93.717813 37.56 93.987813 57L 441.987813 57C 441.717813 31 420.337813 10 393.997813 10L 57.997813 10C 44.737813 10 32.737813 15.31 24.057813 23.91C 15.477812 32.39 10.147813 44.08 10.007813 57L 22.007813 57C 22.277813 37.56 38.287813 21.88 57.997813 21.88ZM 22.008113 57L 10.007813 57L 10.007813 58L 22.008113 58L 22.008113 57ZM 442.007813 57L 94.009713 57L 94.009713 58L 442.007813 58L 442.007813 57ZM 93.990001 58C 93.990001 58.17 94.000001 58.33 94.000001 58.5C 94.000001 78.17 77.880001 94.12 58.000001 94.12C 38.120001 94.12 22.000001 78.17 22.000001 58.5C 22.000001 58.33 22.010001 58.17 22.010001 58L 10.010001 58C 10.010001 58.17 10 58.33 10 58.5C 10 84.73 31.490001 106 58.000001 106L 394.000001 106C 407.260001 106 419.260001 100.69 427.940001 92.09C 436.630001 83.5 442.000001 71.63 442.000001 58.5C 442.000001 58.33 441.990001 58.17 441.990001 58L 93.990001 58Z"></path></g></g></g><g id="g-root-cp_3_g-3_1hgced71y93jm5-fill" data-item-order="-449788" transform="translate(61.9921875, 386)"><g id="cp_3_g-3_1hgced71y93jm5-fill" stroke="none" fill="#dce9ff"><g><path d="M 57.997813 21.88C 77.707813 21.88 93.717813 37.56 93.987813 57L 441.987813 57C 441.717813 31 420.337813 10 393.997813 10L 57.997813 10C 44.737813 10 32.737813 15.31 24.057813 23.91C 15.477812 32.39 10.147813 44.08 10.007813 57L 22.007813 57C 22.277813 37.56 38.287813 21.88 57.997813 21.88ZM 22.008113 57L 10.007813 57L 10.007813 58L 22.008113 58L 22.008113 57ZM 442.007813 57L 94.009713 57L 94.009713 58L 442.007813 58L 442.007813 57ZM 93.990001 58C 93.990001 58.17 94.000001 58.33 94.000001 58.5C 94.000001 78.17 77.880001 94.12 58.000001 94.12C 38.120001 94.12 22.000001 78.17 22.000001 58.5C 22.000001 58.33 22.010001 58.17 22.010001 58L 10.010001 58C 10.010001 58.17 10 58.33 10 58.5C 10 84.73 31.490001 106 58.000001 106L 394.000001 106C 407.260001 106 419.260001 100.69 427.940001 92.09C 436.630001 83.5 442.000001 71.63 442.000001 58.5C 442.000001 58.33 441.990001 58.17 441.990001 58L 93.990001 58Z"></path></g></g></g><g id="g-root-cp_4_g-4_1d0iw8r1y93kef-fill" data-item-order="-449760" transform="translate(61.9921875, 506)"><g id="cp_4_g-4_1d0iw8r1y93kef-fill" stroke="none" fill="#dce9ff"><g><path d="M 57.997813 21.88C 77.707813 21.88 93.717813 37.56 93.987813 57L 441.987813 57C 441.717813 31 420.337813 10 393.997813 10L 57.997813 10C 44.737813 10 32.737813 15.31 24.057813 23.91C 15.477812 32.39 10.147813 44.08 10.007813 57L 22.007813 57C 22.277813 37.56 38.287813 21.88 57.997813 21.88ZM 22.008113 57L 10.007813 57L 10.007813 58L 22.008113 58L 22.008113 57ZM 442.007813 57L 94.009713 57L 94.009713 58L 442.007813 58L 442.007813 57ZM 93.990001 58C 93.990001 58.17 94.000001 58.33 94.000001 58.5C 94.000001 78.17 77.880001 94.12 58.000001 94.12C 38.120001 94.12 22.000001 78.17 22.000001 58.5C 22.000001 58.33 22.010001 58.17 22.010001 58L 10.010001 58C 10.010001 58.17 10 58.33 10 58.5C 10 84.73 31.490001 106 58.000001 106L 394.000001 106C 407.260001 106 419.260001 100.69 427.940001 92.09C 436.630001 83.5 442.000001 71.63 442.000001 58.5C 442.000001 58.33 441.990001 58.17 441.990001 58L 93.990001 58Z"></path></g></g></g><g id="g-root-cp_5_g-5_18kpe4b1y93l6p-fill" data-item-order="-449732" transform="translate(61.9921875, 626)"><g id="cp_5_g-5_18kpe4b1y93l6p-fill" stroke="none" fill="#dce9ff"><g><path d="M 57.997813 21.88C 77.707813 21.88 93.717813 37.56 93.987813 57L 441.987813 57C 441.717813 31 420.337813 10 393.997813 10L 57.997813 10C 44.737813 10 32.737813 15.31 24.057813 23.91C 15.477812 32.39 10.147813 44.08 10.007813 57L 22.007813 57C 22.277813 37.56 38.287813 21.88 57.997813 21.88ZM 22.008113 57L 10.007813 57L 10.007813 58L 22.008113 58L 22.008113 57ZM 442.007813 57L 94.009713 57L 94.009713 58L 442.007813 58L 442.007813 57ZM 93.990001 58C 93.990001 58.17 94.000001 58.33 94.000001 58.5C 94.000001 78.17 77.880001 94.12 58.000001 94.12C 38.120001 94.12 22.000001 78.17 22.000001 58.5C 22.000001 58.33 22.010001 58.17 22.010001 58L 10.010001 58C 10.010001 58.17 10 58.33 10 58.5C 10 84.73 31.490001 106 58.000001 106L 394.000001 106C 407.260001 106 419.260001 100.69 427.940001 92.09C 436.630001 83.5 442.000001 71.63 442.000001 58.5C 442.000001 58.33 441.990001 58.17 441.990001 58L 93.990001 58Z"></path></g></g></g><g id="g-root-cp_6_g-6_zpouyj1y93itn-fill" data-item-order="-449704" transform="translate(61.9921875, 746)"><g id="cp_6_g-6_zpouyj1y93itn-fill" stroke="none" fill="#dce9ff"><g><path d="M 57.997813 21.88C 77.707813 21.88 93.717813 37.56 93.987813 57L 441.987813 57C 441.717813 31 420.337813 10 393.997813 10L 57.997813 10C 44.737813 10 32.737813 15.31 24.057813 23.91C 15.477812 32.39 10.147813 44.08 10.007813 57L 22.007813 57C 22.277813 37.56 38.287813 21.88 57.997813 21.88ZM 22.008113 57L 10.007813 57L 10.007813 58L 22.008113 58L 22.008113 57ZM 442.007813 57L 94.009713 57L 94.009713 58L 442.007813 58L 442.007813 57ZM 93.990001 58C 93.990001 58.17 94.000001 58.33 94.000001 58.5C 94.000001 78.17 77.880001 94.12 58.000001 94.12C 38.120001 94.12 22.000001 78.17 22.000001 58.5C 22.000001 58.33 22.010001 58.17 22.010001 58L 10.010001 58C 10.010001 58.17 10 58.33 10 58.5C 10 84.73 31.490001 106 58.000001 106L 394.000001 106C 407.260001 106 419.260001 100.69 427.940001 92.09C 436.630001 83.5 442.000001 71.63 442.000001 58.5C 442.000001 58.33 441.990001 58.17 441.990001 58L 93.990001 58Z"></path></g></g></g><g id="g-root-ic_time_1cyngzf1y94zk3-fill" data-item-order="0" transform="translate(86, 290)"></g><g id="g-root-tx_destinat_8zngsb1y94yyx-fill" data-item-order="0" transform="translate(158, 284)"><g id="tx_destinat_8zngsb1y94yyx-fill" stroke="none" fill="#969696"><g><text style="font: bold 20px &quot;Arial&quot;, Helvetica, sans-serif; white-space: pre;" font-weight="bold" font-size="20px" font-family="'Arial', Helvetica, sans-serif"><tspan x="12" y="34" dominant-baseline="ideographic">Destination</tspan></text></g></g></g><g id="g-root-tx_realtime_8xs1iz1y96e4m-fill" data-item-order="0" transform="translate(158, 800)"><g id="tx_realtime_8xs1iz1y96e4m-fill" stroke="none" fill="#969696"><g><text style="font: 15px &quot;Arial&quot;, Helvetica, sans-serif; white-space: pre;" font-size="15px" font-family="'Arial', Helvetica, sans-serif"><tspan x="12" y="31" dominant-baseline="ideographic">RealTime lane.</tspan></text></g></g></g><g id="g-root-tx_aircraft_1qd8csb1y93kzr-fill" data-item-order="0" transform="translate(158, 200)"><g id="tx_aircraft_1qd8csb1y93kzr-fill" stroke="none" fill="#969696"><g><text style="font: 15px &quot;Arial&quot;, Helvetica, sans-serif; white-space: pre;" font-size="15px" font-family="'Arial', Helvetica, sans-serif"><tspan x="12" y="31" dominant-baseline="ideographic">Aircraft identifier with a 15 character limit.</tspan></text></g></g></g><g id="g-root-ic_nort_5vvsr1y94yry-fill" data-item-order="0" transform="translate(86, 410)"></g><g id="g-root-tx_directio_zntfp71y94xz8-fill" data-item-order="0" transform="translate(158, 404)"><g id="tx_directio_zntfp71y94xz8-fill" stroke="none" fill="#969696"><g><text style="font: bold 20px &quot;Arial&quot;, Helvetica, sans-serif; white-space: pre;" font-weight="bold" font-size="20px" font-family="'Arial', Helvetica, sans-serif"><tspan x="12" y="34" dominant-baseline="ideographic">Direction</tspan></text></g></g></g><g id="g-root-tx_realtime_mccxbv1y94zk5-fill" data-item-order="0" transform="translate(158, 440)"><g id="tx_realtime_mccxbv1y94zk5-fill" stroke="none" fill="#969696"><g><text style="font: 15px &quot;Arial&quot;, Helvetica, sans-serif; white-space: pre;" font-size="15px" font-family="'Arial', Helvetica, sans-serif"><tspan x="12" y="31" dominant-baseline="ideographic">RealTimeSensor for direction.</tspan></text></g></g></g><g id="g-root-tx_identifi_4nkt6j1y93jly-fill" data-item-order="0" transform="translate(158, 164)"><g id="tx_identifi_4nkt6j1y93jly-fill" stroke="none" fill="#969696"><g><text style="font: bold 20px &quot;Arial&quot;, Helvetica, sans-serif; white-space: pre;" font-weight="bold" font-size="20px" font-family="'Arial', Helvetica, sans-serif"><tspan x="12" y="34" dominant-baseline="ideographic">Identifier</tspan></text></g></g></g><g id="g-root-ic_sign_hrjmij1y96ebl-fill" data-item-order="0" transform="translate(86, 530)"></g><g id="g-root-tx_location_14809ff1y94zrj-fill" data-item-order="0" transform="translate(158, 524)"><g id="tx_location_14809ff1y94zrj-fill" stroke="none" fill="#969696"><g><text style="font: bold 20px &quot;Arial&quot;, Helvetica, sans-serif; white-space: pre;" font-weight="bold" font-size="20px" font-family="'Arial', Helvetica, sans-serif"><tspan x="12" y="34" dominant-baseline="ideographic">Location</tspan></text></g></g></g><g id="g-root-tx_realtime_v304vv1y96cqo-fill" data-item-order="0" transform="translate(158, 560)"><g id="tx_realtime_v304vv1y96cqo-fill" stroke="none" fill="#969696"><g><text style="font: 15px &quot;Arial&quot;, Helvetica, sans-serif; white-space: pre;" font-size="15px" font-family="'Arial', Helvetica, sans-serif"><tspan x="12" y="31" dominant-baseline="ideographic">RealTimeSensor for location.</tspan></text></g></g></g><g id="g-root-ic_atta_1d2ebi31y93jew-fill" data-item-order="0" transform="translate(86, 170)"></g><g id="g-root-ic_sout_1cvj3jv1y96cjo-fill" data-item-order="0" transform="translate(86, 650)"></g><g id="g-root-tx_path_4gpl8b1y96cqq-fill" data-item-order="0" transform="translate(158, 644)"><g id="tx_path_4gpl8b1y96cqq-fill" stroke="none" fill="#969696"><g><text style="font: bold 20px &quot;Arial&quot;, Helvetica, sans-serif; white-space: pre;" font-weight="bold" font-size="20px" font-family="'Arial', Helvetica, sans-serif"><tspan x="12" y="34" dominant-baseline="ideographic">Path</tspan></text></g></g></g><g id="g-root-tx_realtime_1q6d4u31y96e4j-fill" data-item-order="0" transform="translate(158, 680)"><g id="tx_realtime_1q6d4u31y96e4j-fill" stroke="none" fill="#969696"><g><text style="font: 15px &quot;Arial&quot;, Helvetica, sans-serif; white-space: pre;" font-size="15px" font-family="'Arial', Helvetica, sans-serif"><tspan x="12" y="31" dominant-baseline="ideographic">RealTime path.</tspan></text></g></g></g><g id="g-root-tx_aircraft_v9vcu31y93jlx-fill" data-item-order="0" transform="translate(128, 38)"><g id="tx_aircraft_v9vcu31y93jlx-fill" stroke="none" fill="#484848"><g><text style="font: bold 25px &quot;Arial&quot;, Helvetica, sans-serif; white-space: pre;" font-weight="bold" font-size="25px" font-family="'Arial', Helvetica, sans-serif"><tspan x="14.82" y="42.5" dominant-baseline="ideographic">Aircraft object attributes</tspan></text></g></g></g><g id="g-root-ic_clos_1lsf1yz1y96d5b-fill" data-item-order="0" transform="translate(86, 770)"></g><g id="g-root-tx_lane_m98jwb1y96cjp-fill" data-item-order="0" transform="translate(158, 764)"><g id="tx_lane_m98jwb1y96cjp-fill" stroke="none" fill="#969696"><g><text style="font: bold 20px &quot;Arial&quot;, Helvetica, sans-serif; white-space: pre;" font-weight="bold" font-size="20px" font-family="'Arial', Helvetica, sans-serif"><tspan x="12" y="34" dominant-baseline="ideographic">Lane</tspan></text></g></g></g><g id="g-root-tx_destinat_1qa3zcr1y94xz6-fill" data-item-order="0" transform="translate(158, 320)"><g id="tx_destinat_1qa3zcr1y94xz6-fill" stroke="none" fill="#969696"><g><text style="font: 15px &quot;Arial&quot;, Helvetica, sans-serif; white-space: pre;" font-size="15px" font-family="'Arial', Helvetica, sans-serif"><tspan x="12" y="31" dominant-baseline="ideographic">Destination with a 15 character limit.</tspan></text></g></g></g><g id="g-root-cp_1_g-1_1ur6fnf1y93l6x-stroke" data-item-order="-449846" transform="translate(61.9921875, 146)"><g id="cp_1_g-1_1ur6fnf1y93l6x-stroke" fill="none" stroke-linecap="butt" stroke-linejoin="miter" stroke-miterlimit="4" stroke="#484848" stroke-width="1"><g><path d="M 93.987813 57C 93.717813 37.56 77.707813 21.88 57.997813 21.88C 38.287813 21.88 22.277813 37.56 22.007813 57M 441.987813 57C 441.717813 31 420.337813 10 393.997813 10L 57.997813 10C 44.737813 10 32.737813 15.31 24.057813 23.91C 15.477812 32.39 10.147813 44.08 10.007813 57M 22.007813 57L 22.007813 58M 10.007813 58L 10.007813 57M 442.007813 57L 442.007813 58M 94.007813 58L 94.007813 57M 93.990001 58C 93.990001 58.17 94.000001 58.33 94.000001 58.5C 94.000001 78.17 77.880001 94.12 58.000001 94.12C 38.120001 94.12 22.000001 78.17 22.000001 58.5C 22.000001 58.33 22.010001 58.17 22.010001 58M 10.010001 58C 10.010001 58.17 10 58.33 10 58.5C 10 84.73 31.490001 106 58.000001 106L 394.000001 106C 407.260001 106 419.260001 100.69 427.940001 92.09C 436.630001 83.5 442.000001 71.63 442.000001 58.5C 442.000001 58.33 441.990001 58.17 441.990001 58"></path></g></g></g><g id="g-root-cp_2_g-2_1qbzem31y93itf-stroke" data-item-order="-449816" transform="translate(61.9921875, 266)"><g id="cp_2_g-2_1qbzem31y93itf-stroke" fill="none" stroke-linecap="butt" stroke-linejoin="miter" stroke-miterlimit="4" stroke="#484848" stroke-width="1"><g><path d="M 93.987813 57C 93.717813 37.56 77.707813 21.88 57.997813 21.88C 38.287813 21.88 22.277813 37.56 22.007813 57M 441.987813 57C 441.717813 31 420.337813 10 393.997813 10L 57.997813 10C 44.737813 10 32.737813 15.31 24.057813 23.91C 15.477812 32.39 10.147813 44.08 10.007813 57M 22.007813 57L 22.007813 58M 10.007813 58L 10.007813 57M 442.007813 57L 442.007813 58M 94.007813 58L 94.007813 57M 93.990001 58C 93.990001 58.17 94.000001 58.33 94.000001 58.5C 94.000001 78.17 77.880001 94.12 58.000001 94.12C 38.120001 94.12 22.000001 78.17 22.000001 58.5C 22.000001 58.33 22.010001 58.17 22.010001 58M 10.010001 58C 10.010001 58.17 10 58.33 10 58.5C 10 84.73 31.490001 106 58.000001 106L 394.000001 106C 407.260001 106 419.260001 100.69 427.940001 92.09C 436.630001 83.5 442.000001 71.63 442.000001 58.5C 442.000001 58.33 441.990001 58.17 441.990001 58"></path></g></g></g><g id="g-root-cp_3_g-3_1hgced71y93jm5-stroke" data-item-order="-449788" transform="translate(61.9921875, 386)"><g id="cp_3_g-3_1hgced71y93jm5-stroke" fill="none" stroke-linecap="butt" stroke-linejoin="miter" stroke-miterlimit="4" stroke="#484848" stroke-width="1"><g><path d="M 93.987813 57C 93.717813 37.56 77.707813 21.88 57.997813 21.88C 38.287813 21.88 22.277813 37.56 22.007813 57M 441.987813 57C 441.717813 31 420.337813 10 393.997813 10L 57.997813 10C 44.737813 10 32.737813 15.31 24.057813 23.91C 15.477812 32.39 10.147813 44.08 10.007813 57M 22.007813 57L 22.007813 58M 10.007813 58L 10.007813 57M 442.007813 57L 442.007813 58M 94.007813 58L 94.007813 57M 93.990001 58C 93.990001 58.17 94.000001 58.33 94.000001 58.5C 94.000001 78.17 77.880001 94.12 58.000001 94.12C 38.120001 94.12 22.000001 78.17 22.000001 58.5C 22.000001 58.33 22.010001 58.17 22.010001 58M 10.010001 58C 10.010001 58.17 10 58.33 10 58.5C 10 84.73 31.490001 106 58.000001 106L 394.000001 106C 407.260001 106 419.260001 100.69 427.940001 92.09C 436.630001 83.5 442.000001 71.63 442.000001 58.5C 442.000001 58.33 441.990001 58.17 441.990001 58"></path></g></g></g><g id="g-root-cp_4_g-4_1d0iw8r1y93kef-stroke" data-item-order="-449760" transform="translate(61.9921875, 506)"><g id="cp_4_g-4_1d0iw8r1y93kef-stroke" fill="none" stroke-linecap="butt" stroke-linejoin="miter" stroke-miterlimit="4" stroke="#484848" stroke-width="1"><g><path d="M 93.987813 57C 93.717813 37.56 77.707813 21.88 57.997813 21.88C 38.287813 21.88 22.277813 37.56 22.007813 57M 441.987813 57C 441.717813 31 420.337813 10 393.997813 10L 57.997813 10C 44.737813 10 32.737813 15.31 24.057813 23.91C 15.477812 32.39 10.147813 44.08 10.007813 57M 22.007813 57L 22.007813 58M 10.007813 58L 10.007813 57M 442.007813 57L 442.007813 58M 94.007813 58L 94.007813 57M 93.990001 58C 93.990001 58.17 94.000001 58.33 94.000001 58.5C 94.000001 78.17 77.880001 94.12 58.000001 94.12C 38.120001 94.12 22.000001 78.17 22.000001 58.5C 22.000001 58.33 22.010001 58.17 22.010001 58M 10.010001 58C 10.010001 58.17 10 58.33 10 58.5C 10 84.73 31.490001 106 58.000001 106L 394.000001 106C 407.260001 106 419.260001 100.69 427.940001 92.09C 436.630001 83.5 442.000001 71.63 442.000001 58.5C 442.000001 58.33 441.990001 58.17 441.990001 58"></path></g></g></g><g id="g-root-cp_5_g-5_18kpe4b1y93l6p-stroke" data-item-order="-449732" transform="translate(61.9921875, 626)"><g id="cp_5_g-5_18kpe4b1y93l6p-stroke" fill="none" stroke-linecap="butt" stroke-linejoin="miter" stroke-miterlimit="4" stroke="#484848" stroke-width="1"><g><path d="M 93.987813 57C 93.717813 37.56 77.707813 21.88 57.997813 21.88C 38.287813 21.88 22.277813 37.56 22.007813 57M 441.987813 57C 441.717813 31 420.337813 10 393.997813 10L 57.997813 10C 44.737813 10 32.737813 15.31 24.057813 23.91C 15.477812 32.39 10.147813 44.08 10.007813 57M 22.007813 57L 22.007813 58M 10.007813 58L 10.007813 57M 442.007813 57L 442.007813 58M 94.007813 58L 94.007813 57M 93.990001 58C 93.990001 58.17 94.000001 58.33 94.000001 58.5C 94.000001 78.17 77.880001 94.12 58.000001 94.12C 38.120001 94.12 22.000001 78.17 22.000001 58.5C 22.000001 58.33 22.010001 58.17 22.010001 58M 10.010001 58C 10.010001 58.17 10 58.33 10 58.5C 10 84.73 31.490001 106 58.000001 106L 394.000001 106C 407.260001 106 419.260001 100.69 427.940001 92.09C 436.630001 83.5 442.000001 71.63 442.000001 58.5C 442.000001 58.33 441.990001 58.17 441.990001 58"></path></g></g></g><g id="g-root-cp_6_g-6_zpouyj1y93itn-stroke" data-item-order="-449704" transform="translate(61.9921875, 746)"><g id="cp_6_g-6_zpouyj1y93itn-stroke" fill="none" stroke-linecap="butt" stroke-linejoin="miter" stroke-miterlimit="4" stroke="#484848" stroke-width="1"><g><path d="M 93.987813 57C 93.717813 37.56 77.707813 21.88 57.997813 21.88C 38.287813 21.88 22.277813 37.56 22.007813 57M 441.987813 57C 441.717813 31 420.337813 10 393.997813 10L 57.997813 10C 44.737813 10 32.737813 15.31 24.057813 23.91C 15.477812 32.39 10.147813 44.08 10.007813 57M 22.007813 57L 22.007813 58M 10.007813 58L 10.007813 57M 442.007813 57L 442.007813 58M 94.007813 58L 94.007813 57M 93.990001 58C 93.990001 58.17 94.000001 58.33 94.000001 58.5C 94.000001 78.17 77.880001 94.12 58.000001 94.12C 38.120001 94.12 22.000001 78.17 22.000001 58.5C 22.000001 58.33 22.010001 58.17 22.010001 58M 10.010001 58C 10.010001 58.17 10 58.33 10 58.5C 10 84.73 31.490001 106 58.000001 106L 394.000001 106C 407.260001 106 419.260001 100.69 427.940001 92.09C 436.630001 83.5 442.000001 71.63 442.000001 58.5C 442.000001 58.33 441.990001 58.17 441.990001 58"></path></g></g></g><g id="g-root-ic_time_1cyngzf1y94zk3-stroke" data-item-order="0" transform="translate(86, 290)"><g id="ic_time_1cyngzf1y94zk3-stroke" fill="none" stroke-linecap="butt" stroke-linejoin="miter" stroke-miterlimit="4" stroke="#484848" stroke-width="1"><g><path d="M 11 21.98C 11 28.044086 15.915914 32.959999 21.98 32.959999C 28.044086 32.959999 32.959999 28.044086 32.959999 21.98C 32.959999 15.915914 28.044086 11 21.98 11C 15.915914 11 11 15.915914 11 21.98M 27.459999 21.98L 21.98 21.98L 21.98 14.92M 52.740002 34.139999L 31.639999 43.32L 27.42 41.200001C 27.166639 41.080864 26.87336 41.080864 26.619999 41.199997L 22.9 42.779999C 22.615326 42.907787 22.410522 43.165962 22.350857 43.472244C 22.291191 43.778526 22.384109 44.094696 22.599998 44.32L 28.120001 49.84C 28.391378 50.100883 28.790194 50.179081 29.139999 50.039997L 40.139999 45.66L 36.360001 55.66C 36.218681 56.022903 36.315781 56.435368 36.604153 56.697121C 36.892521 56.95887 37.312435 57.015694 37.66 56.84L 41.400002 54.959999C 41.581715 54.869072 41.729073 54.721714 41.82 54.540001L 47.82 42.540001L 55.080002 39.84C 56.653923 39.188248 57.401527 37.384014 56.749855 35.810059C 56.098183 34.236103 54.293987 33.488403 52.719997 34.139999ZM 45.799999 37.16L 35.799999 33.16C 35.570457 33.059818 35.309547 33.059818 35.080002 33.16L 32 34.419998C 31.646742 34.564529 31.415949 34.908318 31.415949 35.290001C 31.415949 35.67168 31.646742 36.015469 32 36.16L 40.279999 39.580002"></path></g></g></g><g id="g-root-tx_destinat_8zngsb1y94yyx-stroke" data-item-order="0" transform="translate(158, 284)"></g><g id="g-root-tx_realtime_8xs1iz1y96e4m-stroke" data-item-order="0" transform="translate(158, 800)"></g><g id="g-root-tx_aircraft_1qd8csb1y93kzr-stroke" data-item-order="0" transform="translate(158, 200)"></g><g id="g-root-ic_nort_5vvsr1y94yry-stroke" data-item-order="0" transform="translate(86, 410)"><g id="ic_nort_5vvsr1y94yry-stroke" fill="none" stroke-linecap="butt" stroke-linejoin="miter" stroke-miterlimit="4" stroke="#484848" stroke-width="1"><g><path d="M 21.84 40C 17.636272 33.203945 18.134182 24.50391 23.085808 18.231823C 28.037434 11.959734 36.384354 9.456263 43.970474 11.967936C 51.556591 14.479609 56.760357 21.469551 56.990711 29.457333C 57.221066 37.445114 52.428768 44.723324 45 47.667999M 38 18L 31 37L 38 34L 45 37L 38 18ZM 11 47L 29 47C 33 47 33 42 29 42M 11 51L 37 51C 42 51 42 57 37 57"></path></g></g></g><g id="g-root-tx_directio_zntfp71y94xz8-stroke" data-item-order="0" transform="translate(158, 404)"></g><g id="g-root-tx_realtime_mccxbv1y94zk5-stroke" data-item-order="0" transform="translate(158, 440)"></g><g id="g-root-tx_identifi_4nkt6j1y93jly-stroke" data-item-order="0" transform="translate(158, 164)"></g><g id="g-root-ic_sign_hrjmij1y96ebl-stroke" data-item-order="0" transform="translate(86, 530)"><g id="ic_sign_hrjmij1y96ebl-stroke" fill="none" stroke-linecap="butt" stroke-linejoin="miter" stroke-miterlimit="4" stroke="#484848" stroke-width="1"><g><path d="M 42.509998 25.001999L 45.509998 11L 39.510002 11L 32.510002 25.001999M 26.926001 22L 26.326 20.976C 25.251024 19.133816 23.278889 18.00079 21.146 18L 18.515999 18C 16.144516 18.000841 13.996033 19.398415 13.034 21.566L 11.243999 25.6C 10.878874 26.428577 11.115967 27.399099 11.822001 27.966L 12.878 28.809999C 14.650254 30.23185 16.853878 31.007772 19.125999 31.01L 47 31.01L 51 36.010002L 56.5 36.010002L 53.958 29.247999L 56.866001 18.344C 57.01506 17.784666 56.895805 17.187824 56.543247 16.728718C 56.190693 16.269611 55.644852 16.000353 55.065998 16C 53.497417 15.99965 52.073395 16.916155 51.424 18.344L 50.296001 20.827999C 49.972 21.542 49.759998 22 48.973999 22L 47.509998 22M 11.506001 25.001999L 21.591999 25.001999M 46.928001 53.366001C 39.661652 58.2113 30.194345 58.2113 22.927999 53.365997M 44.104 47.236C 38.548138 50.942589 31.307865 50.942589 25.752001 47.236M 41.281998 41.076C 37.434395 43.641342 32.421608 43.641342 28.574001 41.076004"></path></g></g></g><g id="g-root-tx_location_14809ff1y94zrj-stroke" data-item-order="0" transform="translate(158, 524)"></g><g id="g-root-tx_realtime_v304vv1y96cqo-stroke" data-item-order="0" transform="translate(158, 560)"></g><g id="g-root-ic_atta_1d2ebi31y93jew-stroke" data-item-order="0" transform="translate(86, 170)"><g id="ic_atta_1d2ebi31y93jew-stroke" fill="none" stroke-linecap="butt" stroke-linejoin="miter" stroke-miterlimit="4" stroke="#484848" stroke-width="1"><g><path d="M 26.299999 43C 27.483688 42.997761 28.641594 43.345688 29.628 44L 37.115997 49L 29.628 54C 28.641594 54.654312 27.483688 55.002243 26.300001 55L 18.925999 55C 15.612291 55 12.926001 52.313709 12.926001 49C 12.926001 45.686295 15.612291 43 18.926001 43ZM 30.844 44.82L 34.115997 41.001999L 42.116001 41.001999L 37.115997 49.001999M 30.844 53.183998L 34.115997 57.001999L 42.116001 57.001999L 37.115997 49.001999M 21.118 43.001999L 21.118 55.001999M 20.925999 36.001999L 20.925999 39.001999M 26.926001 36.001999L 26.926001 38.001999M 42.509998 25.001999L 45.509998 10.998L 39.510002 10.998L 32.510002 25.001999M 26.926001 22L 26.326 20.976C 25.251385 19.134432 23.280174 18.001501 21.148001 18L 18.518 18C 16.146988 18.000488 13.998631 19.397196 13.036 21.563999L 11.246 25.6C 10.880874 26.428577 11.117967 27.399099 11.824 27.966L 12.88 28.799999C 14.651718 30.22142 16.854565 30.997318 19.125999 31L 46.987999 31L 50.987999 36L 56.487999 36L 53.956001 29.247999L 56.863998 18.344C 57.01392 17.784592 56.895004 17.187275 56.542271 16.727936C 56.189533 16.268597 55.643147 15.999544 55.063999 16C 53.495415 15.99965 52.071392 16.916155 51.422001 18.344L 50.293999 20.826C 49.970001 21.540001 49.757999 22 48.973999 22L 47.509998 22M 11.508 25.001999L 21.594 25.001999"></path></g></g></g><g id="g-root-ic_sout_1cvj3jv1y96cjo-stroke" data-item-order="0" transform="translate(86, 650)"><g id="ic_sout_1cvj3jv1y96cjo-stroke" fill="none" stroke-linecap="butt" stroke-linejoin="miter" stroke-miterlimit="4" stroke="#484848" stroke-width="1"><g><path d="M 21.84 40C 17.636272 33.203945 18.134182 24.50391 23.085808 18.231823C 28.037434 11.959734 36.384354 9.456263 43.970474 11.967936C 51.556591 14.479609 56.760357 21.469551 56.990711 29.457333C 57.221066 37.445114 52.428768 44.723324 45 47.667999M 38 39L 45 20L 38 23L 31 20L 38 39ZM 11 47L 29 47C 33 47 33 42 29 42M 11 51L 37 51C 42 51 42 57 37 57"></path></g></g></g><g id="g-root-tx_path_4gpl8b1y96cqq-stroke" data-item-order="0" transform="translate(158, 644)"></g><g id="g-root-tx_realtime_1q6d4u31y96e4j-stroke" data-item-order="0" transform="translate(158, 680)"></g><g id="g-root-tx_aircraft_v9vcu31y93jlx-stroke" data-item-order="0" transform="translate(128, 38)"></g><g id="g-root-ic_clos_1lsf1yz1y96d5b-stroke" data-item-order="0" transform="translate(86, 770)"><g id="ic_clos_1lsf1yz1y96d5b-stroke" fill="none" stroke-linecap="butt" stroke-linejoin="miter" stroke-miterlimit="4" stroke="#484848" stroke-width="1"><g><path d="M 13.413832 32.585785L 32.584911 13.414708C 32.584911 13.414708 33.999123 12.000494 35.413338 13.414708L 54.584415 32.585785C 54.584415 32.585785 55.998631 34 54.584415 35.414215L 35.413338 54.585293C 35.413338 54.585293 33.999123 55.999504 32.584911 54.585293L 13.413832 35.414215C 13.413832 35.414215 11.99962 34 13.413832 32.585785M 24.133999 28.082001C 23.213175 28.29669 22.46616 28.967495 22.154001 29.860001C 22.052044 30.142189 21.999933 30.439959 22 30.74C 21.980862 31.696321 22.464348 32.592709 23.274 33.102001L 38.98 42.854C 39.308102 43.060081 39.728035 43.048244 40.043999 42.824001L 45.799999 38.781998C 46.02861 38.597519 46.064423 38.262657 45.880001 38.034C 45.854641 38.000275 45.824291 37.9706 45.790001 37.945999L 43.374001 35.813999C 43.203442 35.673431 42.962479 35.656563 42.774002 35.772003L 39.823997 37.529999L 36 34.849998L 43.278 30.346001C 43.555557 30.108114 43.588634 29.690624 43.352001 29.411999C 43.320137 29.375767 43.284618 29.342926 43.245998 29.314001L 41.461998 28C 41.282051 27.867546 41.047558 27.834476 40.837997 27.911999L 30.799999 31.639999L 26.167999 28.472C 25.574318 28.063404 24.836708 27.921974 24.133999 28.082001Z"></path></g></g></g><g id="g-root-tx_lane_m98jwb1y96cjp-stroke" data-item-order="0" transform="translate(158, 764)"></g><g id="g-root-tx_destinat_1qa3zcr1y94xz6-stroke" data-item-order="0" transform="translate(158, 320)"></g></g></g><path id="w18i7o3f1yjcyko" d="M65.283 12.757a.35.35 0 0 0 .584.157l5.203-5.141-6.183 3.523.396 1.461zm-2.216-11.7a.35.35 0 0 0-.522.305v3.111l3.276-1.868-2.754-1.548zm3.728 2.105l-4.25 2.421v2.445l6.391-3.644-2.141-1.222zm4.708 3.303a.35.35 0 0 0 0-.609l-1.592-.9-7.365 4.199v1.782a.35.35 0 0 0 .523.305l8.435-4.777z M44.542 2.513c0-.433.355-.783.792-.783s.792.35.792.783-.355.783-.792.783-.792-.35-.792-.783zm59.171 0c0-.433.355-.783.792-.783s.792.35.792.783-.355.783-.792.783-.792-.35-.792-.783zm-85.951 7.636h-1.27v-.487c-.276.201-.864.609-1.881.609-1.202 0-2.274-.794-2.137-2.078.118-1.106 1.153-1.584 1.848-1.727l2.17-.345c0-.539-.29-.956-1.064-1.006s-1.21.305-1.571 1.017l-1.124-.605c1.218-2.631 5.029-1.764 5.029.414v4.207zm-1.27-2.86c.006.396-.062 1.112-.819 1.59-.587.37-1.841.299-1.903-.395-.049-.555.461-.791.906-.898l1.816-.297zm72.662 2.86h-1.27v-.487c-.276.201-.864.609-1.881.609-1.202 0-2.274-.794-2.137-2.078.118-1.106 1.153-1.584 1.848-1.727l2.17-.345c0-.539-.29-.956-1.064-1.006s-1.21.305-1.571 1.017l-1.124-.605c1.218-2.631 5.029-1.764 5.029.414v4.207zm-1.27-2.86c.006.396-.062 1.112-.82 1.59-.587.37-1.841.299-1.903-.395-.049-.555.461-.791.906-.898l1.816-.297zM99.096 10.149H97.85v-8.45h1.246v4.895l2.68-2.559h1.738l-2.633 2.535 2.715 3.578h-1.556l-2.077-2.707-.867.844v1.863zm6.053-6.114h-1.255v6.113h1.255V4.035zm-59.2 0h-1.255v6.113h1.255V4.035zm5.584 6.113V1.697h1.255v2.695c.361-.346 1-.485 1.47-.485 1.452 0 2.477 1.082 2.457 2.448v3.792h-1.27v-3.68c0-.408-.214-1.339-1.315-1.339-.968 0-1.342.756-1.342 1.339v3.681h-1.255zm-4.76-4.894V4.039h.621a.45.45 0 0 0 .45-.45v-.855h1.251v1.305h1.309v1.215h-1.309v3.109c0 .293.105.664.648.664.365 0 .531-.035.736-.07v1.137s-.361.113-.857.113c-1.398 0-1.777-1.051-1.777-1.788V5.254h-1.071zM36.528 4.039h-1.394l2.191 6.106h1.125l1.234-3.918 1.238 3.918h1.129l2.188-6.106h-1.383l-1.359 3.93-1.256-3.93h-1.124l-1.242 3.957-1.348-3.957zM26.212 7.141c-.02 1.566 1.187 3.129 3.223 3.129 1.566 0 2.383-.918 2.734-1.719L31.172 8c-.315.399-.801 1.094-1.738 1.094-1.145 0-1.825-.781-1.891-1.52h4.625c.074-.284.148-.995-.03-1.559-.336-1.064-1.221-2.102-2.839-2.102s-3.088 1.152-3.088 3.227zm1.363-.75h3.348c-.055-.43-.566-1.301-1.623-1.301a1.79 1.79 0 0 0-1.725 1.301zm-8.758.75c.038 1.758 1.277 3.133 3.145 3.133 1.074 0 1.723-.477 1.961-.672v.547h1.242V1.703h-1.258v2.888c-.414-.36-1.062-.68-1.93-.68-1.91 0-3.198 1.473-3.16 3.23zm1.309-.08c0 1.119.723 1.978 1.836 1.978a1.88 1.88 0 0 0 1.94-1.904c0-1.371-1.011-1.99-1.972-1.99s-1.805.798-1.805 1.916zm76.683-.028C96.771 5.275 95.532 3.9 93.664 3.9c-1.074 0-1.723.477-1.961.672v-.547h-1.242v8.22h1.258V9.583c.414.36 1.063.68 1.93.68 1.91 0 3.198-1.473 3.16-3.23zm-1.309.08c0-1.119-.723-1.978-1.836-1.978a1.88 1.88 0 0 0-1.94 1.904c0 1.371 1.011 1.99 1.972 1.99S95.5 8.231 95.5 7.113zM106.441 10.173V4.036h1.254v.382c.361-.346 1-.485 1.47-.485 1.452 0 2.477 1.082 2.457 2.448v3.792h-1.27V6.492c0-.408-.214-1.339-1.315-1.339-.969 0-1.342.756-1.342 1.339v3.681h-1.254zm-30.383-.021V1.824h1.084l4.215 5.777V1.824h1.32v8.328h-1.094l-4.207-5.796v5.796h-1.319zM5.24 10.149H4V2.377h1.014l2.664 3.597 2.654-3.592h1.03v7.766h-1.256V4.762L7.678 8.068 5.24 4.742v5.407z" transform="translate(440, 914)" fill="#80808088" stroke="none"></path></svg>