<?xml version="1.0" encoding="utf-8" standalone="yes"?>
<!DOCTYPE svg PUBLIC "-//W3C//DTD SVG 1.1//EN" "http://www.w3.org/Graphics/SVG/1.1/DTD/svg11.dtd">
<svg width="851" height="858" viewBox="0 0 851 858" style="fill:none;stroke:none;fill-rule:evenodd;clip-rule:evenodd;stroke-linecap:round;stroke-linejoin:round;stroke-miterlimit:1.5;" version="1.1" xmlns="http://www.w3.org/2000/svg" xmlns:xlink="http://www.w3.org/1999/xlink"><style class="text-font-style fontImports" data-font-family="Roboto">@import url('https://fonts.googleapis.com/css2?family=Roboto:wght@400;700&amp;display=block');</style><g id="items" style="isolation: isolate"><g id="blend" style="mix-blend-mode: normal"><g id="g-root-sy_0c_cu_1463yjv1unpo9b-fill" data-item-order="-572142" transform="translate(159, 242)"><g id="sy_0c_cu_1463yjv1unpo9b-fill" stroke="none" fill="#f5f5f5"><g><path d="M 100 10L 16 10L 10 82L 106 82L 100 10Z"></path></g></g></g><g id="g-root-sy_0d_cu_vagyaz1unppts-fill" data-item-order="-572138" transform="translate(153, 314)"><g id="sy_0d_cu_vagyaz1unppts-fill" stroke="none" fill="#f5f5f5"><g><path d="M 118 82L 112 10L 16 10.000008L 10 82L 118 82Z"></path></g></g></g><g id="g-root-sy_0e_cu_hzmx0r1unpo8x-fill" data-item-order="-572134" transform="translate(147, 386)"><g id="sy_0e_cu_hzmx0r1unpo8x-fill" stroke="none" fill="#f5f5f5"><g><path d="M 130 82L 124 10.000015L 16 10L 10 82L 130 82Z"></path></g></g></g><g id="g-root-sy_0f_cu_93zwrv1unpp1m-fill" data-item-order="-572130" transform="translate(141, 458)"><g id="sy_0f_cu_93zwrv1unpp1m-fill" stroke="none" fill="#f5f5f5"><g><path d="M 142 82L 136 10.000015L 16 10L 10 82L 142 82Z"></path></g></g></g><g id="g-root-sy_0g_cu_4o6enf1unpptv-fill" data-item-order="-572126" transform="translate(135, 530)"><g id="sy_0g_cu_4o6enf1unpptv-fill" stroke="none" fill="#f5f5f5"><g><path d="M 154 82L 148 10L 16 10L 10 82L 154 82Z"></path></g></g></g><g id="g-root-sy_0h_cu_1uu9xgr1unpn9o-fill" data-item-order="-572122" transform="translate(129, 602)"><g id="sy_0h_cu_1uu9xgr1unpn9o-fill" stroke="none" fill="#f5f5f5"><g><path d="M 166 82L 160 10L 16 10L 10 82L 166 82Z"></path></g></g></g><g id="g-root-sy_0i_cu_1uu9xgr1unpn9p-fill" data-item-order="-572118" transform="translate(124, 674)"><g id="sy_0i_cu_1uu9xgr1unpn9p-fill" stroke="none" fill="#f5f5f5"><g><path d="M 10 70L 33.173 70L 45.173 82L 177 82L 171 10L 15 10L 10 70Z"></path></g></g></g><g id="g-root-sy_0b_cu_1hitf3f1unpoum-fill" data-item-order="-572114" transform="translate(171, 97.99996948242188)"><g id="sy_0b_cu_1hitf3f1unpoum-fill" stroke="none" fill="#f5f5f5"><g><path d="M 82 100.00042L 82 52.000527L 634 10L 634 141.999992L 82 100.00042ZM 10 40.000031L 82 40.000031L 82 112.000031L 10 112.000031L 10 40.000031Z"></path></g></g></g><g id="g-root-sy_0a_cu_1d2zwyz1unppmv-fill" data-item-order="-572110" transform="translate(171, 200)"><g id="sy_0a_cu_1d2zwyz1unppmv-fill" stroke="none" fill="#f5f5f5"><g><path d="M 10 10L 82 10L 82 28L 10 28L 10 10Z"></path></g></g></g><g id="g-root-sy_0a_cu_1_1d2zwyz1unppmw-fill" data-item-order="-572107" transform="translate(159, 86)"></g><g id="g-root-sy_0a_cu_2_18nsvxn1unpn9d-fill" data-item-order="-572106" transform="translate(153, 104)"><g id="sy_0a_cu_2_18nsvxn1unpn9d-fill" stroke="none" fill="#f5f5f5"><g><path d="M 16 34L 112 34L 64 10L 16 34ZM 16 136L 112 136L 106 148L 22 148L 16 136ZM 10 124L 118 124L 118 136L 10 136L 10 124Z"></path></g></g></g><g id="g-root-sy_0a_cu_3_vccdkb1unpoua-fill" data-item-order="-572104" transform="translate(39.8271484375, 734)"><g id="sy_0a_cu_3_vccdkb1unpoua-fill" stroke="none" fill="#f5f5f5"><g><path d="M 45.173 46L 81.673 10L 117.173 10L 129.173 22L 297.173 22L 309.173 34L 333.173 34L 357.173 58L 411.917 58L 423.928 70C 423.58 70.4243 423.202 70.8141 422.795 71.1925C 419.784 73.9903 415.392 75.3778 411.009 75.3778C 406.627 75.3778 402.235 73.9789 399.224 71.1925C 398.826 70.8141 398.448 70.4243 398.101 70C 397.753 70.4243 397.375 70.8141 396.968 71.1925C 393.957 73.9903 389.555 75.3778 385.182 75.3778C 380.81 75.3778 376.408 73.9789 373.397 71.1925C 372.999 70.8141 372.621 70.4243 372.264 70C 371.916 70.4243 371.538 70.8141 371.141 71.1925C 368.13 73.9903 363.728 75.3778 359.355 75.3778C 354.983 75.3778 350.581 73.9789 347.57 71.1925C 347.172 70.8141 346.794 70.4243 346.437 70C 346.089 70.4243 345.711 70.8141 345.314 71.1925C 342.303 73.9903 337.901 75.3778 333.528 75.3778C 329.156 75.3778 324.754 73.9789 321.743 71.1925C 321.345 70.8141 320.967 70.4243 320.61 70C 320.262 70.4243 319.884 70.8141 319.487 71.1925C 316.476 73.9903 312.074 75.3778 307.701 75.3778C 303.329 75.3778 298.927 73.9789 295.916 71.1925C 295.518 70.8141 295.14 70.4243 294.783 70C 294.435 70.4243 294.057 70.8141 293.66 71.1925C 290.649 73.9903 286.247 75.3778 281.874 75.3778C 277.502 75.3778 273.1 73.9789 270.089 71.1925C 269.691 70.8141 269.313 70.4243 268.956 70C 268.608 70.4243 268.23 70.8141 267.823 71.1925C 264.812 73.9903 260.41 75.3778 256.037 75.3778C 251.665 75.3778 247.263 73.9789 244.252 71.1925C 243.854 70.8141 243.477 70.4243 243.119 70C 242.771 70.4243 242.393 70.8141 241.986 71.1925C 238.975 73.9903 234.189 75.3862 229.816 75.3862C 225.434 75.3862 220.911 73.9789 217.9 71.1925C 217.502 70.8141 217.124 70.4243 216.767 70C 216.419 70.4243 216.041 70.8141 215.634 71.1925C 212.623 73.9903 208.221 75.3778 203.848 75.3778C 199.476 75.3778 195.074 73.9789 192.063 71.1925C 191.665 70.8141 191.287 70.4243 190.94 70C 190.592 70.4243 190.214 70.8141 189.807 71.1925C 186.796 73.9903 182.404 75.3778 178.021 75.3778C 173.639 75.3778 169.247 73.9789 166.236 71.1925C 165.838 70.8141 165.46 70.4243 165.113 70C 164.765 70.4243 164.387 70.8141 163.98 71.1925C 160.969 73.9903 156.567 75.3778 152.194 75.3778C 147.822 75.3778 143.42 73.9789 140.409 71.1925C 140.011 70.8141 139.633 70.4243 139.276 70C 138.928 70.4243 138.55 70.8141 138.153 71.1925C 135.142 73.9903 130.74 75.3778 126.367 75.3778C 121.995 75.3778 117.593 73.9789 114.582 71.1925C 114.184 70.8141 113.806 70.4243 113.449 70C 113.101 70.4243 112.723 70.8141 112.326 71.1925C 109.3148 73.9903 104.9126 75.3778 100.5402 75.3778C 96.1678 75.3778 91.7656 73.9789 88.7546 71.1925C 88.3571 70.8141 87.9795 70.4243 87.6217 70C 87.2739 70.4243 86.8963 70.8141 86.4988 71.1925C 83.4878 73.9903 79.0856 75.3778 74.7132 75.3778C 70.3408 75.3778 65.9386 73.9789 62.9276 71.1925C 62.5301 70.8141 62.1525 70.4243 61.7947 70C 61.4469 70.4243 61.0693 70.8141 60.6718 71.1925C 57.6608 73.9903 53.2586 75.3778 48.8862 75.3778C 44.5138 75.3778 40.1116 73.9789 37.1006 71.1925C 36.7031 70.8141 36.3255 70.4243 35.9677 70C 35.6199 70.4243 35.2423 70.8141 34.8349 71.1925C 31.8239 73.9903 27.4217 75.3778 23.0493 75.3778C 18.6669 75.3778 14.1438 73.9789 11.1328 71.1925C 10.7354 70.8141 10.3577 70.4243 10 70L 33.173 46L 45.173 46Z"></path></g></g></g><g id="g-root-sy_0a_cu_4_mgpdbf1unppmz-fill" data-item-order="-572101" transform="translate(14, 794)"></g><g id="g-root-tx_developo_1hby7571unr4ll-fill" data-item-order="0" transform="translate(339, 338)"><g id="tx_developo_1hby7571unr4ll-fill" stroke="none" fill="#484848"><g><text style="font: 20px &quot;Roboto&quot;, sans-serif; white-space: pre;" font-size="20px" font-family="'Roboto', sans-serif"><tspan x="12" y="34" dominant-baseline="ideographic">Develop Object Model</tspan></text></g></g></g><g id="g-root-ic_data_hu0qej1un8t8g-fill" data-item-order="0" transform="translate(183, 397.7939453125)"></g><g id="g-root-tx_createum_4hxnsb1unr2f4-fill" data-item-order="0" transform="translate(339, 410)"><g id="tx_createum_4hxnsb1unr2f4-fill" stroke="none" fill="#484848"><g><text style="font: 20px &quot;Roboto&quot;, sans-serif; white-space: pre;" font-size="20px" font-family="'Roboto', sans-serif"><tspan x="12" y="34" dominant-baseline="ideographic">Create UML-RTDB Profile</tspan></text></g></g></g><g id="g-root-ic_2_1qbym5n1un8tft-fill" data-item-order="0" transform="translate(183, 325.7939453125)"></g><g id="g-root-ic_data_1ly0jaj1un7f2n-fill" data-item-order="0" transform="translate(183, 469.7939453125)"></g><g id="g-root-tx_maptosch_dcy6y31unr40f-fill" data-item-order="0" transform="translate(339, 482)"><g id="tx_maptosch_dcy6y31unr40f-fill" stroke="none" fill="#484848"><g><text style="font: 20px &quot;Roboto&quot;, sans-serif; white-space: pre;" font-size="20px" font-family="'Roboto', sans-serif"><tspan x="12" y="34" dominant-baseline="ideographic">Map to Schema</tspan></text></g></g></g><g id="g-root-tx_developi_8vvtt71unehad-fill" data-item-order="0" transform="translate(164.99996948242188, 38)"><g id="tx_developi_8vvtt71unehad-fill" stroke="none" fill="#484848"><g><text style="font: bold 25px &quot;Roboto&quot;, sans-serif; white-space: pre;" font-weight="bold" font-size="25px" font-family="'Roboto', sans-serif"><tspan x="16.23" y="43.5" dominant-baseline="ideographic">Developing Real-Time Database Framework</tspan></text></g></g></g><g id="g-root-ic_cog_qqwotn1un7gg6-fill" data-item-order="0" transform="translate(183, 541.7939453125)"></g><g id="g-root-tx_implemen_qoepbf1unr2fi-fill" data-item-order="0" transform="translate(339, 554)"><g id="tx_implemen_qoepbf1unr2fi-fill" stroke="none" fill="#484848"><g><text style="font: 20px &quot;Roboto&quot;, sans-serif; white-space: pre;" font-size="20px" font-family="'Roboto', sans-serif"><tspan x="12" y="34" dominant-baseline="ideographic">Implement Framework</tspan></text></g></g></g><g id="g-root-ic_ulul_hs5b571una7m2-fill" data-item-order="0" transform="translate(183, 253.7939453125)"></g><g id="g-root-ic_airp_1luw5uz1un61ad-fill" data-item-order="0" transform="translate(183, 613.7939453125)"></g><g id="g-root-tx_demonstr_1hap8yz1unr2fh-fill" data-item-order="0" transform="translate(339, 626)"><g id="tx_demonstr_1hap8yz1unr2fh-fill" stroke="none" fill="#484848"><g><text style="font: 20px &quot;Roboto&quot;, sans-serif; white-space: pre;" font-size="20px" font-family="'Roboto', sans-serif"><tspan x="12" y="34" dominant-baseline="ideographic">Demonstrate Case Study</tspan></text></g></g></g><g id="g-root-ic_book_8z042z1unr3t0-fill" data-item-order="0" transform="translate(183, 685.7939453125)"></g><g id="g-root-tx_publishr_8vvqnf1unr2mk-fill" data-item-order="0" transform="translate(339, 698)"><g id="tx_publishr_8vvqnf1unr2mk-fill" stroke="none" fill="#484848"><g><text style="font: 20px &quot;Roboto&quot;, sans-serif; white-space: pre;" font-size="20px" font-family="'Roboto', sans-serif"><tspan x="12" y="34" dominant-baseline="ideographic">Publish Results</tspan></text></g></g></g><g id="g-root-tx_identify_magmgb1unr283-fill" data-item-order="0" transform="translate(339, 152)"><g id="tx_identify_magmgb1unr283-fill" stroke="none" fill="#969696"><g><text style="font: 20px &quot;Roboto&quot;, sans-serif; white-space: pre;" font-size="20px" font-family="'Roboto', sans-serif"><tspan x="12" y="34" dominant-baseline="ideographic">Identify Requirements</tspan></text></g></g></g><g id="g-root-ic_sear_v2zcff1unbmkr-fill" data-item-order="0" transform="translate(183, 139.7939453125)"></g><g id="g-root-tx_reviewum_14145uz1unr30q-fill" data-item-order="0" transform="translate(339, 266)"><g id="tx_reviewum_14145uz1unr30q-fill" stroke="none" fill="#484848"><g><text style="font: 20px &quot;Roboto&quot;, sans-serif; white-space: pre;" font-size="20px" font-family="'Roboto', sans-serif"><tspan x="12" y="34" dominant-baseline="ideographic">Review UML Profiles</tspan></text></g></g></g><g id="g-root-sy_0c_cu_1463yjv1unpo9b-stroke" data-item-order="-572142" transform="translate(159, 242)"><g id="sy_0c_cu_1463yjv1unpo9b-stroke" fill="none" stroke-linecap="round" stroke-linejoin="round" stroke-miterlimit="4" stroke="#969696" stroke-width="2"><g><path d="M 16 10L 100 10L 106 82L 10 82L 16 10Z"></path></g></g></g><g id="g-root-sy_0d_cu_vagyaz1unppts-stroke" data-item-order="-572138" transform="translate(153, 314)"><g id="sy_0d_cu_vagyaz1unppts-stroke" fill="none" stroke-linecap="round" stroke-linejoin="round" stroke-miterlimit="4" stroke="#969696" stroke-width="2"><g><path d="M 112 10L 118 82L 10 82L 16 10L 112 10Z"></path></g></g></g><g id="g-root-sy_0e_cu_hzmx0r1unpo8x-stroke" data-item-order="-572134" transform="translate(147, 386)"><g id="sy_0e_cu_hzmx0r1unpo8x-stroke" fill="none" stroke-linecap="round" stroke-linejoin="round" stroke-miterlimit="4" stroke="#969696" stroke-width="2"><g><path d="M 124 10L 130 82L 10 82L 16 10L 124 10Z"></path></g></g></g><g id="g-root-sy_0f_cu_93zwrv1unpp1m-stroke" data-item-order="-572130" transform="translate(141, 458)"><g id="sy_0f_cu_93zwrv1unpp1m-stroke" fill="none" stroke-linecap="round" stroke-linejoin="round" stroke-miterlimit="4" stroke="#969696" stroke-width="2"><g><path d="M 136 10L 142 82L 10 82L 16 10L 136 10Z"></path></g></g></g><g id="g-root-sy_0g_cu_4o6enf1unpptv-stroke" data-item-order="-572126" transform="translate(135, 530)"><g id="sy_0g_cu_4o6enf1unpptv-stroke" fill="none" stroke-linecap="round" stroke-linejoin="round" stroke-miterlimit="4" stroke="#969696" stroke-width="2"><g><path d="M 148 10L 154 82L 10 82L 16 10L 148 10Z"></path></g></g></g><g id="g-root-sy_0h_cu_1uu9xgr1unpn9o-stroke" data-item-order="-572122" transform="translate(129, 602)"><g id="sy_0h_cu_1uu9xgr1unpn9o-stroke" fill="none" stroke-linecap="round" stroke-linejoin="round" stroke-miterlimit="4" stroke="#969696" stroke-width="2"><g><path d="M 160 10L 166 82L 10 82L 16 10L 160 10Z"></path></g></g></g><g id="g-root-sy_0i_cu_1uu9xgr1unpn9p-stroke" data-item-order="-572118" transform="translate(124, 674)"><g id="sy_0i_cu_1uu9xgr1unpn9p-stroke" fill="none" stroke-linecap="round" stroke-linejoin="round" stroke-miterlimit="4" stroke="#969696" stroke-width="2"><g><path d="M 10 70L 33.173 70L 45.173 82L 177 82L 171 10L 15 10L 10 70Z"></path></g></g></g><g id="g-root-sy_0b_cu_1hitf3f1unpoum-stroke" data-item-order="-572114" transform="translate(171, 97.99996948242188)"><g id="sy_0b_cu_1hitf3f1unpoum-stroke" fill="none" stroke-linecap="round" stroke-linejoin="round" stroke-miterlimit="4" stroke="#969696" stroke-width="2"><g><path d="M 82 100.00042L 82 52.000527L 634 10L 634 141.999992L 82 100.00042ZM 10 40.000031L 82 40.000031L 82 112.000031L 10 112.000031L 10 40.000031Z"></path></g></g></g><g id="g-root-sy_0a_cu_1d2zwyz1unppmv-stroke" data-item-order="-572110" transform="translate(171, 200)"><g id="sy_0a_cu_1d2zwyz1unppmv-stroke" fill="none" stroke-linecap="round" stroke-linejoin="round" stroke-miterlimit="4" stroke="#969696" stroke-width="2"><g><path d="M 10 10L 82 10L 82 28L 10 28L 10 10Z"></path></g></g></g><g id="g-root-sy_0a_cu_1_1d2zwyz1unppmw-stroke" data-item-order="-572107" transform="translate(159, 86)"><g id="sy_0a_cu_1_1d2zwyz1unppmw-stroke" fill="none" stroke-linecap="round" stroke-linejoin="round" stroke-miterlimit="4" stroke="#969696" stroke-width="2"><g><path d="M 106 142L 106 124L 10 124L 10 142M 46 124L 46 142M 22 124L 22 142M 70 124L 70 142M 94 124L 94 142M 58 10L 58 28"></path></g></g></g><g id="g-root-sy_0a_cu_2_18nsvxn1unpn9d-stroke" data-item-order="-572106" transform="translate(153, 104)"><g id="sy_0a_cu_2_18nsvxn1unpn9d-stroke" fill="none" stroke-linecap="round" stroke-linejoin="round" stroke-miterlimit="4" stroke="#969696" stroke-width="2"><g><path d="M 16 34L 112 34L 64 10L 16 34ZM 16 136L 112 136L 106 148L 22 148L 16 136ZM 10 124L 118 124L 118 136L 10 136L 10 124Z"></path></g></g></g><g id="g-root-sy_0a_cu_3_vccdkb1unpoua-stroke" data-item-order="-572104" transform="translate(39.8271484375, 734)"><g id="sy_0a_cu_3_vccdkb1unpoua-stroke" fill="none" stroke-linecap="round" stroke-linejoin="round" stroke-miterlimit="4" stroke="#969696" stroke-width="2"><g><path d="M 23.0493 75.3778C 27.4217 75.3778 31.8239 73.9903 34.8349 71.1925C 35.2423 70.8141 35.6199 70.4243 35.9677 70C 36.3255 70.4243 36.7031 70.8141 37.1006 71.1925C 40.1116 73.9789 44.5138 75.3778 48.8862 75.3778C 53.2586 75.3778 57.6608 73.9903 60.6718 71.1925C 61.0693 70.8141 61.4469 70.4243 61.7947 70C 62.1525 70.4243 62.5301 70.8141 62.9276 71.1925C 65.9386 73.9789 70.3408 75.3778 74.7132 75.3778C 79.0856 75.3778 83.4878 73.9903 86.4988 71.1925C 86.8963 70.8141 87.2739 70.4243 87.6217 70C 87.9795 70.4243 88.3571 70.8141 88.7546 71.1925C 91.7656 73.9789 96.1678 75.3778 100.5402 75.3778C 104.9126 75.3778 109.3148 73.9903 112.3258 71.1925C 112.7233 70.8141 113.1009 70.4243 113.4487 70C 113.8065 70.4243 114.1841 70.8141 114.5816 71.1925C 117.5926 73.9789 121.9948 75.3778 126.3672 75.3778C 130.7396 75.3778 135.1418 73.9903 138.1528 71.1925C 138.5503 70.8141 138.9279 70.4243 139.2757 70C 139.6335 70.4243 140.0111 70.8141 140.4086 71.1925C 143.4196 73.9789 147.8218 75.3778 152.1942 75.3778C 156.5666 75.3778 160.9688 73.9903 163.9798 71.1925C 164.3872 70.8141 164.7649 70.4243 165.1127 70C 165.4605 70.4243 165.8381 70.8141 166.2356 71.1925C 169.2466 73.9789 173.6388 75.3778 178.0212 75.3778C 182.4035 75.3778 186.7958 73.9903 189.8068 71.1925C 190.2143 70.8141 190.5919 70.4243 190.9397 70C 191.2875 70.4243 191.6651 70.8141 192.0626 71.1925C 195.0736 73.9789 199.4758 75.3778 203.8482 75.3778C 208.2206 75.3778 212.6228 73.9903 215.6338 71.1925C 216.0413 70.8141 216.4189 70.4243 216.7667 70C 217.1244 70.4243 217.502 70.8141 217.8995 71.1925C 220.9105 73.9789 225.4339 75.3862 229.8163 75.3862C 234.1887 75.3862 238.9749 73.9903 241.9859 71.1925C 242.3934 70.8141 242.771 70.4243 243.1188 70C 243.4765 70.4243 243.8541 70.8141 244.2516 71.1925C 247.2626 73.9789 251.6648 75.3778 256.0372 75.3778C 260.4096 75.3778 264.8119 73.9903 267.8229 71.1925C 268.2303 70.8141 268.6079 70.4243 268.9557 70C 269.3135 70.4243 269.6911 70.8141 270.0886 71.1925C 273.0995 73.9789 277.5018 75.3778 281.8742 75.3778C 286.2466 75.3778 290.6488 73.9903 293.6598 71.1925C 294.0573 70.8141 294.4349 70.4243 294.7827 70C 295.1404 70.4243 295.5181 70.8141 295.9156 71.1925C 298.9266 73.9789 303.3288 75.3778 307.7012 75.3778C 312.0736 75.3778 316.4758 73.9903 319.4868 71.1925C 319.8843 70.8141 320.2619 70.4243 320.6097 70C 320.9675 70.4243 321.3451 70.8141 321.7426 71.1925C 324.7536 73.9789 329.1558 75.3778 333.5282 75.3778C 337.9006 75.3778 342.3029 73.9903 345.3138 71.1925C 345.7113 70.8141 346.0889 70.4243 346.4367 70C 346.7945 70.4243 347.1721 70.8141 347.5696 71.1925C 350.5806 73.9789 354.9828 75.3778 359.3552 75.3778C 363.7276 75.3778 368.1298 73.9903 371.1408 71.1925C 371.5383 70.8141 371.9159 70.4243 372.2637 70C 372.6215 70.4243 372.9991 70.8141 373.3966 71.1925C 376.4076 73.9789 380.8098 75.3778 385.1822 75.3778C 389.5546 75.3778 393.9568 73.9903 396.9678 71.1925C 397.3752 70.8141 397.7529 70.4243 398.1006 70C 398.4485 70.4243 398.8261 70.8141 399.2236 71.1925C 402.2346 73.9789 406.6268 75.3778 411.0092 75.3778C 415.3915 75.3778 419.7839 73.9903 422.7949 71.1925C 423.2023 70.8141 423.5799 70.4243 423.9277 70L 411.9172 58L 357.173 58L 333.173 34L 309.173 34L 297.173 22L 129.173 22L 117.173 10L 81.673 10L 45.173 46L 33.173 46L 10 70C 10.3577 70.4243 10.7354 70.8141 11.1328 71.1925C 14.1438 73.9789 18.6669 75.3778 23.0493 75.3778ZM 23.0493 75.3778L 23.0492 75.3862M 129.15918 22.027344L 141.23978 34.107944L 153.17818 34.107944L 165.32958 46.259344M 45.448731 46.0463L 69.467331 46.0463L 81.263631 34.25M 165.672831 70.0005L 189.627031 46.0463L 213.589531 46.0463L 225.506831 57.9636M 309.537031 34.25L 297.740631 46.0463L 285.443331 46.0463L 273.526031 57.9636"></path></g></g></g><g id="g-root-sy_0a_cu_4_mgpdbf1unppmz-stroke" data-item-order="-572101" transform="translate(14, 794)"><g id="sy_0a_cu_4_mgpdbf1unppmz-stroke" fill="none" stroke-linecap="round" stroke-linejoin="round" stroke-miterlimit="4" stroke="#969696" stroke-width="2"><g><path d="M 48.8763 15.3778C 53.2487 15.3778 57.6509 13.9903 60.6619 11.1925C 61.0693 10.8141 61.4469 10.4243 61.7948 10C 62.1525 10.4243 62.5301 10.8141 62.9276 11.1925C 65.9386 13.9789 70.3408 15.3778 74.7132 15.3778C 79.0856 15.3778 83.4878 13.9903 86.4988 11.1925C 86.8963 10.8141 87.274 10.4243 87.6218 10C 87.9795 10.4243 88.3571 10.8141 88.7546 11.1925C 91.7656 13.9789 96.1678 15.3778 100.5402 15.3778C 104.9126 15.3778 109.3148 13.9903 112.3259 11.1925C 112.7233 10.8141 113.101 10.4243 113.4488 10C 113.8065 10.4243 114.1841 10.8141 114.5816 11.1925C 117.5926 13.9789 121.9948 15.3778 126.3672 15.3778C 130.7396 15.3778 135.1419 13.9903 138.1528 11.1925C 138.5503 10.8141 138.9279 10.4243 139.2758 10C 139.6335 10.4243 140.0111 10.8141 140.4086 11.1925C 143.4196 13.9789 147.8218 15.3778 152.1942 15.3778C 156.5666 15.3778 160.9688 13.9903 163.9798 11.1925C 164.3773 10.8141 164.755 10.4243 165.1028 10C 165.4605 10.4243 165.8381 10.8141 166.2356 11.1925C 169.2466 13.9789 173.6488 15.3778 178.0212 15.3778C 182.3936 15.3778 186.7958 13.9903 189.8068 11.1925C 190.2143 10.8141 190.5919 10.4243 190.9397 10C 191.2875 10.4243 191.6651 10.8141 192.0626 11.1925C 195.0736 13.9789 199.4659 15.3778 203.8482 15.3778C 208.2305 15.3778 212.6229 13.9903 215.6339 11.1925C 216.0413 10.8141 216.4189 10.4243 216.7667 10C 217.1145 10.4243 217.4921 10.8141 217.8896 11.1925C 220.9006 13.9789 225.3028 15.3778 229.6752 15.3778C 234.0477 15.3778 238.4499 13.9903 241.4609 11.1925C 241.8683 10.8141 242.2459 10.4243 242.5937 10C 242.9515 10.4243 243.3291 10.8141 243.7266 11.1925C 246.7376 13.9789 251.2609 15.3862 255.6433 15.3862C 260.0157 15.3862 264.802 13.9903 267.813 11.1925C 268.2204 10.8141 268.598 10.4243 268.9458 10C 269.3035 10.4243 269.6812 10.8141 270.0786 11.1925C 273.0896 13.9789 277.4919 15.3778 281.8643 15.3778C 286.2367 15.3778 290.6389 13.9903 293.6499 11.1925C 294.0573 10.8141 294.4349 10.4243 294.7827 10C 295.1405 10.4243 295.5181 10.8141 295.9156 11.1925C 298.9266 13.9789 303.3288 15.3778 307.7012 15.3778C 312.0736 15.3778 316.4758 13.9903 319.4868 11.1925C 319.8843 10.8141 320.2619 10.4243 320.6097 10C 320.9675 10.4243 321.3451 10.8141 321.7426 11.1925C 324.7536 13.9789 329.1558 15.3778 333.5282 15.3778C 337.9006 15.3778 342.3029 13.9903 345.3138 11.1925C 345.7113 10.8141 346.089 10.4243 346.4368 10C 346.7945 10.4243 347.1721 10.8141 347.5696 11.1925C 350.5806 13.9789 354.9828 15.3778 359.3552 15.3778C 363.7276 15.3778 368.1299 13.9903 371.1409 11.1925C 371.5384 10.8141 371.916 10.4243 372.2638 10C 372.6215 10.4243 372.9991 10.8141 373.3966 11.1925C 376.4076 13.9789 380.8098 15.3778 385.1823 15.3778C 389.5547 15.3778 393.9568 13.9903 396.9678 11.1925C 397.3653 10.8141 397.743 10.4243 398.0908 10C 398.4485 10.4243 398.8261 10.8141 399.2236 11.1925C 402.2346 13.9789 406.6368 15.3778 411.0092 15.3778C 415.3816 15.3778 419.7838 13.9903 422.7948 11.1925C 423.2023 10.8141 423.5799 10.4243 423.9277 10C 424.2755 10.4243 424.6531 10.8141 425.0506 11.1925C 428.0616 13.9789 432.4539 15.3778 436.8362 15.3778C 441.2186 15.3778 445.6109 13.9903 448.6219 11.1925C 449.0293 10.8141 449.4069 10.4243 449.7547 10C 450.1025 10.4243 450.4801 10.8141 450.8776 11.1925C 453.8886 13.9789 458.2908 15.3778 462.6632 15.3778C 467.0356 15.3778 471.4379 13.9903 474.4489 11.1925C 474.8563 10.8141 475.2339 10.4243 475.5817 10C 475.9395 10.4243 476.317 10.8141 476.7145 11.1925C 479.7255 13.9789 484.2486 15.3862 488.6309 15.3862C 493.0033 15.3862 497.7894 13.9903 500.8004 11.1925C 501.2079 10.8141 501.5854 10.4243 501.9333 10C 502.291 10.4243 502.6686 10.8141 503.0661 11.1925C 506.0771 13.9789 510.4793 15.3778 514.8517 15.3778C 519.2241 15.3778 523.6263 13.9903 526.6373 11.1925C 527.0447 10.8141 527.4224 10.4243 527.7702 10C 528.1279 10.4243 528.5056 10.8141 528.9031 11.1925C 531.9141 13.9789 536.3163 15.3778 540.6887 15.3778C 545.061 15.3778 549.4633 13.9903 552.4743 11.1925C 552.8718 10.8141 553.2494 10.4243 553.5972 10C 553.955 10.4243 554.3325 10.8141 554.73 11.1925C 557.741 13.9789 562.1433 15.3778 566.5157 15.3778C 570.8881 15.3778 575.2903 13.9903 578.3013 11.1925C 578.6987 10.8141 579.0764 10.4243 579.4242 10C 579.7819 10.4243 580.1595 10.8141 580.5571 11.1925C 583.5681 13.9789 587.9702 15.3778 592.3427 15.3778C 596.7151 15.3778 601.1173 13.9903 604.1283 11.1925C 604.5258 10.8141 604.9034 10.4243 605.2512 10C 605.6089 10.4243 605.9866 10.8141 606.384 11.1925C 609.395 13.9789 613.7973 15.3778 618.1697 15.3778C 622.5421 15.3778 626.9443 13.9903 629.9553 11.1925C 630.3528 10.8141 630.7305 10.4243 631.0782 10C 631.436 10.4243 631.8136 10.8141 632.2111 11.1925C 635.222 13.9789 639.6243 15.3778 643.9967 15.3778C 648.3691 15.3778 652.7713 13.9903 655.7823 11.1925C 656.1897 10.8141 656.5674 10.4243 656.9152 10C 657.2629 10.4243 657.6406 10.8141 658.0381 11.1925C 661.0491 13.9789 665.4413 15.3778 669.8237 15.3778C 674.206 15.3778 678.5983 13.9903 681.6093 11.1925C 682.0167 10.8141 682.3944 10.4243 682.7422 10C 683.09 10.4243 683.4676 10.8141 683.8651 11.1925C 686.8761 13.9789 691.2784 15.3778 695.6508 15.3778C 700.0232 15.3778 704.4253 13.9903 707.4363 11.1925C 707.8438 10.8141 708.2214 10.4243 708.5692 10C 708.927 10.4243 709.3045 10.8141 709.702 11.1925C 712.713 13.9789 717.2361 15.3778 721.6185 15.3778M 48.8763 15.3778C 44.4939 15.3778 39.9709 13.9789 36.9599 11.1925C 36.5624 10.8141 36.1848 10.4243 35.827 10C 35.4792 10.4243 35.1016 10.8141 34.6942 11.1925C 31.6832 13.9903 27.281 15.3778 22.9086 15.3778C 18.5361 15.3778 14.1339 13.9789 11.1229 11.1925C 10.7254 10.8141 10.3478 10.4243 10 10M 48.8763 15.3778L 48.8762 15.3862M 812.0179 10C 811.6701 10.4243 811.2925 10.8141 810.895 11.1925C 807.884 13.9903 803.4818 15.3778 799.1094 15.3778C 794.737 15.3778 790.3348 13.9789 787.3238 11.1925C 786.9263 10.8141 786.5487 10.4243 786.191 10C 785.8432 10.4243 785.4655 10.8141 785.0681 11.1925C 782.0571 13.9903 777.6548 15.3778 773.2824 15.3778C 768.91 15.3778 764.5078 13.9789 761.4968 11.1925C 761.0993 10.8141 760.7217 10.4243 760.364 10C 760.0162 10.4243 759.6385 10.8141 759.241 11.1925C 756.23 13.9903 751.8278 15.3778 747.4554 15.3778C 743.083 15.3778 738.6808 13.9789 735.6698 11.1925C 735.2723 10.8141 734.8947 10.4243 734.5369 10C 734.1891 10.4243 733.8115 10.8141 733.4041 11.1925C 730.3931 13.9903 725.9909 15.3778 721.6185 15.3778M 721.6185 15.3778L 721.6184 15.3862"></path></g></g></g><g id="g-root-tx_developo_1hby7571unr4ll-stroke" data-item-order="0" transform="translate(339, 338)"></g><g id="g-root-ic_data_hu0qej1un8t8g-stroke" data-item-order="0" transform="translate(183, 397.7939453125)"><g id="ic_data_hu0qej1un8t8g-stroke" fill="none" stroke-linecap="round" stroke-linejoin="round" stroke-miterlimit="4" stroke="#969696" stroke-width="2"><g><path d="M 52.5 11.5C 54.700001 11.5 56.5 13.3 56.5 15.5L 56.5 23.5L 11.5 23.5L 11.5 15.5C 11.5 13.3 13.3 11.5 15.5 11.5L 52.5 11.5ZM 26.5 23.5L 26.5 47.099998L 15.5 47.099998C 13.3 47.099998 11.5 45.299999 11.5 43.099998L 11.5 23.5L 26.5 23.5ZM 11.5 35.5L 26.5 35.5M 31.5 47.099998L 26.5 47.099998M 26.5 35.5L 31.5 35.5M 41.5 23.5L 56.5 23.5L 56.5 27.5M 47.5 38.5C 52.4706 38.5 56.5 37.156799 56.5 35.5C 56.5 33.843201 52.4706 32.5 47.5 32.5C 42.5294 32.5 38.5 33.843201 38.5 35.5C 38.5 37.156799 42.5294 38.5 47.5 38.5ZM 56.5 35.5L 56.5 44.5C 56.5 46.099998 52.5 47.5 47.5 47.5C 42.5 47.5 38.5 46.099998 38.5 44.5L 38.5 35.5M 56.5 44.5L 56.5 53.5C 56.5 55.099998 52.5 56.5 47.5 56.5C 42.5 56.5 38.5 55.099998 38.5 53.5L 38.5 44.5M 41.5 23.5L 41.5 26.9291"></path></g></g></g><g id="g-root-tx_createum_4hxnsb1unr2f4-stroke" data-item-order="0" transform="translate(339, 410)"></g><g id="g-root-ic_2_1qbym5n1un8tft-stroke" data-item-order="0" transform="translate(183, 325.7939453125)"><g id="ic_2_1qbym5n1un8tft-stroke" fill="none" stroke-linecap="round" stroke-linejoin="round" stroke-miterlimit="4" stroke="#969696" stroke-width="2"><g><path d="M 33.999802 27.499519C 38.417999 27.499519 41.999802 23.91778 41.999802 19.499519C 41.999802 15.08124 38.417999 11.499512 33.999802 11.499512C 29.58148 11.499512 25.99976 15.08124 25.99976 19.499519C 25.99976 23.91778 29.58148 27.499519 33.999802 27.499519ZM 33.999802 51.100399C 36.098602 51.100399 37.799801 49.3992 37.799801 47.3004C 37.799801 45.201801 36.098602 43.500401 33.999802 43.500401C 31.901199 43.500401 30.1998 45.201801 30.1998 47.3004C 30.1998 49.3992 31.901199 51.100399 33.999802 51.100399ZM 10 10M 36.499802 50.7006L 42.299801 53.100601L 34.0998 56.500599L 25.69982 53.100601L 31.4998 50.7006M 10 10M 33.999802 43.500401L 33.999802 27.499519M 19.699799 37.399799C 21.798481 37.399799 23.499779 35.698402 23.499779 33.5998C 23.499779 31.5012 21.798481 29.799801 19.699799 29.799801C 17.60112 29.799801 15.89978 31.5012 15.89978 33.5998C 15.89978 35.698402 17.60112 37.399799 19.699799 37.399799ZM 10 10M 22.29986 37L 28.09988 39.400002L 19.6999 42.799999L 11.499878 39.400002L 17.29986 37M 48.299801 37.399799C 50.398602 37.399799 52.0998 35.698402 52.0998 33.5998C 52.0998 31.5012 50.398602 29.799801 48.299801 29.799801C 46.201199 29.799801 44.499802 31.5012 44.499802 33.5998C 44.499802 35.698402 46.201199 37.399799 48.299801 37.399799ZM 10 10M 45.700001 37L 40.099998 39.400002L 48.299999 42.799999L 56.5 39.400002L 50.700001 37M 10 10M 22.599861 31.1714L 28.19986 25.0376M 10 10M 45.399799 31.1714L 39.799801 25.0376"></path></g></g></g><g id="g-root-ic_data_1ly0jaj1un7f2n-stroke" data-item-order="0" transform="translate(183, 469.7939453125)"><g id="ic_data_1ly0jaj1un7f2n-stroke" fill="none" stroke-linecap="round" stroke-linejoin="round" stroke-miterlimit="4" stroke="#969696" stroke-width="2"><g><path d="M 30.184 45.888L 15.219999 45.888C 12.889359 45.887997 11 43.998638 11 41.667999L 11 15.294001C 11 12.963358 12.889359 11.074 15.219999 11.073999L 46.869999 11.074C 49.200638 11.074 51.089996 12.963358 51.089996 15.294L 51.09 30.184M 11 19.313999L 51.09 19.313999M 11 36.826L 30.184 36.826M 11 28.084L 51.09 28.084M 27.374001 19.313999L 27.374001 45.888M 39.113998 19.313999L 39.113998 29.639999M 36.035999 37.461998C 36.034397 39.943348 40.727818 41.955246 46.518002 41.955246C 52.308182 41.955246 57.001602 39.943348 57 37.461998C 57.001602 34.980652 52.308182 32.968758 46.518002 32.968758C 40.727818 32.968758 36.034397 34.980652 36.035999 37.461998M 36.035999 37.459999L 36.035999 44.948002C 36.035999 47.425999 40.73 49.439999 46.518002 49.439999C 52.306 49.439999 57 47.428001 57 44.948002L 57 37.459999M 36.035999 44.948002L 36.035999 52.433998C 36.035999 54.914001 40.73 56.925999 46.518002 56.925999C 52.306 56.925999 57 54.916 57 52.433998L 57 44.948002"></path></g></g></g><g id="g-root-tx_maptosch_dcy6y31unr40f-stroke" data-item-order="0" transform="translate(339, 482)"></g><g id="g-root-tx_developi_8vvtt71unehad-stroke" data-item-order="0" transform="translate(164.99996948242188, 38)"></g><g id="g-root-ic_cog_qqwotn1un7gg6-stroke" data-item-order="0" transform="translate(183, 541.7939453125)"><g id="ic_cog_qqwotn1un7gg6-stroke" fill="none" stroke-linecap="round" stroke-linejoin="round" stroke-miterlimit="4" stroke="#969696" stroke-width="2"><g><path d="M 10 10M 33.761398 36.450001L 30.7614 39.450001L 33.761398 42.450001M 10 10M 48.361401 36.450001L 51.361401 39.450001L 48.361401 42.450001M 10 10M 38.761398 42.450001L 42.761398 34.450001M 10 10M 23.76148 13.25L 24.56148 15.650021C 24.76148 16.45002 25.76148 17.05002 26.56148 16.850019L 28.961479 16.25C 31.1614 15.85 32.561401 18.250019 31.1614 19.850021L 29.361481 21.650021C 28.76148 22.250019 28.76148 23.250019 29.361481 23.850021L 31.1614 25.650021C 32.561401 27.250019 31.1614 29.85 28.961479 29.25L 26.56148 28.650021C 25.76148 28.45002 24.76148 28.850019 24.56148 29.850019L 23.76148 32.25C 23.16148 34.450001 20.16148 34.450001 19.56148 32.25L 18.76148 29.850019C 18.56148 29.05002 17.56148 28.45002 16.76148 28.650021L 14.361481 29.25C 12.16148 29.65 10.761484 27.250019 12.16148 25.650021L 13.96148 23.850021C 14.56148 23.250019 14.56148 22.250019 13.96148 21.650021L 12.16148 19.850021C 10.761484 18.250019 12.16148 15.65 14.361481 16.25L 16.76148 16.850019C 17.56148 17.05002 18.56148 16.650021 18.76148 15.650021L 19.56148 13.25C 20.16148 11.050006 23.16148 11.050006 23.76148 13.25ZM 10 10M 30.1 47.685001L 28.1001 55.724998M 10 10M 38.099998 47.685001L 40.099998 55.724998M 22.1001 55.724998L 46.099998 55.724998M 38.875 15.525021L 52.600201 15.525021C 54.800201 15.525021 56.600201 17.334021 56.600201 19.545021L 56.600201 43.665001C 56.600201 45.875999 54.800201 47.685001 52.600201 47.685001L 15.6001 47.685001C 13.4001 47.685001 11.600098 45.875999 11.600098 43.665001L 11.600098 37.125M 18.661999 22.75C 18.662001 24.406855 20.005146 25.75 21.662001 25.75C 23.318855 25.75 24.662001 24.406855 24.662001 22.75C 24.662001 21.093147 23.318855 19.75 21.662001 19.75C 20.005146 19.75 18.662001 21.093147 18.662001 22.75"></path></g></g></g><g id="g-root-tx_implemen_qoepbf1unr2fi-stroke" data-item-order="0" transform="translate(339, 554)"></g><g id="g-root-ic_ulul_hs5b571una7m2-stroke" data-item-order="0" transform="translate(183, 253.7939453125)"><g id="ic_ulul_hs5b571una7m2-stroke" fill="none" stroke-linecap="round" stroke-linejoin="round" stroke-miterlimit="4" stroke="#969696" stroke-width="2"><g><path d="M 53 36C 53.000515 31.338427 49.780087 27.294838 45.236607 26.252228C 40.693123 25.209618 36.031933 27.444584 34 31.639999C 31.967743 27.445225 27.306923 25.210804 22.76387 26.253344C 18.220818 27.295883 15.000534 31.338861 15.000534 36C 15.000534 40.66114 18.220818 44.704117 22.76387 45.746658C 27.306923 46.7892 31.967743 44.554775 34 40.360001C 36.031933 44.555416 40.693123 46.790382 45.236607 45.747772C 49.780087 44.705162 53.000515 40.661575 53 36ZM 19 35C 19 37.761425 21.238577 40 24 40C 26.761423 40 29 37.761425 29 35C 29 32.238579 26.761423 30 24 30C 21.238577 30 19 32.238579 19 35M 22 32C 22 33.104568 22.895432 34 24 34C 25.104568 34 26 33.104568 26 32C 26 30.89543 25.104568 30 24 30C 22.895432 30 22 30.89543 22 32M 39 35C 39 37.761425 41.238579 40 44 40C 46.761425 40 49 37.761425 49 35C 49 32.238579 46.761425 30 44 30C 41.238579 30 39 32.238579 39 35M 42 32C 42 33.104568 42.895432 34 44 34C 45.104568 34 46 33.104568 46 32C 46 30.89543 45.104568 30 44 30C 42.895432 30 42 30.89543 42 32M 34 36L 33 34L 34 31.639999L 35 34L 34 36ZM 56.459999 18.18C 56.141708 18.02449 55.760624 18.080067 55.5 18.32L 52.759998 20.700001C 48.447117 14.619528 41.454735 11.006479 34 11.006479C 26.545265 11.006479 19.552883 14.619528 15.24 20.700001L 12.5 18.32C 12.239376 18.080067 11.858293 18.02449 11.54 18.18C 11.206327 18.313629 10.990954 18.640678 11 19L 11 34C 11 46.702549 21.297451 57 34 57C 46.702549 57 57 46.702549 57 34L 57 19C 57.009045 18.640678 56.793671 18.313629 56.459999 18.18Z"></path></g></g></g><g id="g-root-ic_airp_1luw5uz1un61ad-stroke" data-item-order="0" transform="translate(183, 613.7939453125)"><g id="ic_airp_1luw5uz1un61ad-stroke" fill="none" stroke-linecap="round" stroke-linejoin="round" stroke-miterlimit="4" stroke="#969696" stroke-width="2"><g><path d="M 21.42 43C 20.975555 43 20.584444 42.706665 20.459999 42.279999L 17.040001 28.280001C 16.960905 27.977425 17.019461 27.655367 17.199999 27.4C 17.386724 27.145655 17.68449 26.996773 18 27L 50 27C 50.31551 26.996773 50.613277 27.145655 50.799999 27.4C 50.980537 27.655367 51.039093 27.977425 50.959995 28.279999L 47.540001 42.279999C 47.415554 42.706665 47.024445 43 46.580002 43ZM 42 17L 42 14M 34 17L 34 11M 26 17L 26 14M 27 57L 27 43M 41 43L 41 57M 27 32L 28 38M 41 32L 40 38M 17.959999 32L 50.040001 32M 19.42 38L 48.580002 38M 43 27L 25 27L 23 21L 25.439999 17L 42.560001 17L 45.02 21L 43 27ZM 23 21L 45 21M 30 21L 31 27M 38 21L 37 27"></path></g></g></g><g id="g-root-tx_demonstr_1hap8yz1unr2fh-stroke" data-item-order="0" transform="translate(339, 626)"></g><g id="g-root-ic_book_8z042z1unr3t0-stroke" data-item-order="0" transform="translate(183, 685.7939453125)"><g id="ic_book_8z042z1unr3t0-stroke" fill="none" stroke-linecap="round" stroke-linejoin="round" stroke-miterlimit="4" stroke="#969696" stroke-width="2"><g><path d="M 37.900002 44.818001C 34.008614 44.825146 30.723536 41.927799 30.24444 38.06601C 29.765345 34.204224 32.242836 30.59197 36.017998 29.648001C 36.789856 29.456814 37.586273 29.383984 38.379997 29.431999C 38.838612 29.461689 39.258415 29.174976 39.397621 28.736996C 39.536831 28.299015 39.359596 27.822538 38.968002 27.582001C 34.959541 25.277176 29.937618 25.72517 26.400423 28.703125C 22.863228 31.681078 21.56596 36.553192 23.153952 40.895798C 24.741943 45.238407 28.876158 48.124352 33.5 48.118C 35.410515 48.12112 37.288155 47.621014 38.944 46.667999C 39.348274 46.436897 39.539524 45.957336 39.405235 45.511456C 39.270943 45.065571 38.846657 44.771397 38.382 44.801998C 38.222 44.812 38.062 44.818001 37.900002 44.818001ZM 45.5 39.118L 41.5 34.945999M 41.5 38.945999L 45.5 35.118M 52 11L 20 11C 17.790861 11 16 12.790861 16 15C 16 17.209139 17.790861 19 20 19L 51 19C 51.552284 19 52 19.447716 52 20L 52 56C 52 56.552284 51.552284 57 51 57L 20 57C 17.790861 57 16 55.209141 16 53L 16 15M 20 15L 50 15"></path></g></g></g><g id="g-root-tx_publishr_8vvqnf1unr2mk-stroke" data-item-order="0" transform="translate(339, 698)"></g><g id="g-root-tx_identify_magmgb1unr283-stroke" data-item-order="0" transform="translate(339, 152)"></g><g id="g-root-ic_sear_v2zcff1unbmkr-stroke" data-item-order="0" transform="translate(183, 139.7939453125)"><g id="ic_sear_v2zcff1unbmkr-stroke" fill="none" stroke-linecap="round" stroke-linejoin="round" stroke-miterlimit="4" stroke="#969696" stroke-width="2"><g><path d="M 11.042 19.001999C 11.042 23.420277 19.54859 27.002001 30.042 27.002001C 40.535408 27.002001 49.042 23.420277 49.042 19.001999C 49.042 14.583722 40.535408 11.002 30.042 11.002C 19.54859 11.002 11.042 14.583722 11.042 19.001999ZM 33.042 34.900002C 32.063999 34.966 31.062 35.001999 30.042 35.001999C 19.549999 35.001999 11.042 31.422001 11.042 27.002001M 30.042 44C 19.549999 44 11.042 40.419998 11.042 36M 30.042 53C 19.549999 53 11.042 49.419998 11.042 45L 11.042 19M 49.042 19.001999L 49.042 30.002001M 35.040001 44.060001C 35.040001 49.062595 39.095406 53.118 44.098 53.118C 49.100594 53.118 53.155998 49.062595 53.155998 44.059998C 53.155998 39.057404 49.100594 35.001999 44.098 35.001999C 39.095406 35.001999 35.040001 39.057404 35.040001 44.059998ZM 57.040001 57.001999L 50.543999 50.506001"></path></g></g></g><g id="g-root-tx_reviewum_14145uz1unr30q-stroke" data-item-order="0" transform="translate(339, 266)"></g></g></g><path id="wqvwu631unfu30" d="M65.283 12.757a.35.35 0 0 0 .584.157l5.203-5.141-6.183 3.523.396 1.461zm-2.216-11.7a.35.35 0 0 0-.522.305v3.111l3.276-1.868-2.754-1.548zm3.728 2.105l-4.25 2.421v2.445l6.391-3.644-2.141-1.222zm4.708 3.303a.35.35 0 0 0 0-.609l-1.592-.9-7.365 4.199v1.782a.35.35 0 0 0 .523.305l8.435-4.777z M44.542 2.513c0-.433.355-.783.792-.783s.792.35.792.783-.355.783-.792.783-.792-.35-.792-.783zm59.171 0c0-.433.355-.783.792-.783s.792.35.792.783-.355.783-.792.783-.792-.35-.792-.783zm-85.951 7.636h-1.27v-.487c-.276.201-.864.609-1.881.609-1.202 0-2.274-.794-2.137-2.078.118-1.106 1.153-1.584 1.848-1.727l2.17-.345c0-.539-.29-.956-1.064-1.006s-1.21.305-1.571 1.017l-1.124-.605c1.218-2.631 5.029-1.764 5.029.414v4.207zm-1.27-2.86c.006.396-.062 1.112-.819 1.59-.587.37-1.841.299-1.903-.395-.049-.555.461-.791.906-.898l1.816-.297zm72.662 2.86h-1.27v-.487c-.276.201-.864.609-1.881.609-1.202 0-2.274-.794-2.137-2.078.118-1.106 1.153-1.584 1.848-1.727l2.17-.345c0-.539-.29-.956-1.064-1.006s-1.21.305-1.571 1.017l-1.124-.605c1.218-2.631 5.029-1.764 5.029.414v4.207zm-1.27-2.86c.006.396-.062 1.112-.82 1.59-.587.37-1.841.299-1.903-.395-.049-.555.461-.791.906-.898l1.816-.297zM99.096 10.149H97.85v-8.45h1.246v4.895l2.68-2.559h1.738l-2.633 2.535 2.715 3.578h-1.556l-2.077-2.707-.867.844v1.863zm6.053-6.114h-1.255v6.113h1.255V4.035zm-59.2 0h-1.255v6.113h1.255V4.035zm5.584 6.113V1.697h1.255v2.695c.361-.346 1-.485 1.47-.485 1.452 0 2.477 1.082 2.457 2.448v3.792h-1.27v-3.68c0-.408-.214-1.339-1.315-1.339-.968 0-1.342.756-1.342 1.339v3.681h-1.255zm-4.76-4.894V4.039h.621a.45.45 0 0 0 .45-.45v-.855h1.251v1.305h1.309v1.215h-1.309v3.109c0 .293.105.664.648.664.365 0 .531-.035.736-.07v1.137s-.361.113-.857.113c-1.398 0-1.777-1.051-1.777-1.788V5.254h-1.071zM36.528 4.039h-1.394l2.191 6.106h1.125l1.234-3.918 1.238 3.918h1.129l2.188-6.106h-1.383l-1.359 3.93-1.256-3.93h-1.124l-1.242 3.957-1.348-3.957zM26.212 7.141c-.02 1.566 1.187 3.129 3.223 3.129 1.566 0 2.383-.918 2.734-1.719L31.172 8c-.315.399-.801 1.094-1.738 1.094-1.145 0-1.825-.781-1.891-1.52h4.625c.074-.284.148-.995-.03-1.559-.336-1.064-1.221-2.102-2.839-2.102s-3.088 1.152-3.088 3.227zm1.363-.75h3.348c-.055-.43-.566-1.301-1.623-1.301a1.79 1.79 0 0 0-1.725 1.301zm-8.758.75c.038 1.758 1.277 3.133 3.145 3.133 1.074 0 1.723-.477 1.961-.672v.547h1.242V1.703h-1.258v2.888c-.414-.36-1.062-.68-1.93-.68-1.91 0-3.198 1.473-3.16 3.23zm1.309-.08c0 1.119.723 1.978 1.836 1.978a1.88 1.88 0 0 0 1.94-1.904c0-1.371-1.011-1.99-1.972-1.99s-1.805.798-1.805 1.916zm76.683-.028C96.771 5.275 95.532 3.9 93.664 3.9c-1.074 0-1.723.477-1.961.672v-.547h-1.242v8.22h1.258V9.583c.414.36 1.063.68 1.93.68 1.91 0 3.198-1.473 3.16-3.23zm-1.309.08c0-1.119-.723-1.978-1.836-1.978a1.88 1.88 0 0 0-1.94 1.904c0 1.371 1.011 1.99 1.972 1.99S95.5 8.231 95.5 7.113zM106.441 10.173V4.036h1.254v.382c.361-.346 1-.485 1.47-.485 1.452 0 2.477 1.082 2.457 2.448v3.792h-1.27V6.492c0-.408-.214-1.339-1.315-1.339-.969 0-1.342.756-1.342 1.339v3.681h-1.254zm-30.383-.021V1.824h1.084l4.215 5.777V1.824h1.32v8.328h-1.094l-4.207-5.796v5.796h-1.319zM5.24 10.149H4V2.377h1.014l2.664 3.597 2.654-3.592h1.03v7.766h-1.256V4.762L7.678 8.068 5.24 4.742v5.407z" transform="translate(717.017822265625, 826.38623046875)" fill="#80808088" stroke="none"></path></svg>