<?xml version="1.0" encoding="utf-8" standalone="yes"?>
<!DOCTYPE svg PUBLIC "-//W3C//DTD SVG 1.1//EN" "http://www.w3.org/Graphics/SVG/1.1/DTD/svg11.dtd">
<svg width="624" height="624" viewBox="0 0 624 624" style="fill:none;stroke:none;fill-rule:evenodd;clip-rule:evenodd;stroke-linecap:round;stroke-linejoin:round;stroke-miterlimit:1.5;" version="1.1" xmlns="http://www.w3.org/2000/svg" xmlns:xlink="http://www.w3.org/1999/xlink"><style class="text-font-style fontImports" data-font-family="Roboto">@import url('https://fonts.googleapis.com/css2?family=Roboto:wght@400;700&amp;display=block');</style><g id="items" style="isolation: isolate"><g id="blend" style="mix-blend-mode: normal"><g id="g-root-cp_5_g-5_1cuvhdn1xzgky2-fill" data-item-order="-304117" transform="translate(218, 393)"></g><g id="g-root-cp_4_g-4_zjez0b1xzgmj0-fill" data-item-order="-304114" transform="translate(290, 404)"></g><g id="g-root-cp_3_g-3_m8kxq31xzgky6-fill" data-item-order="-304110" transform="translate(254.00003051757812, 425.326171875)"></g><g id="g-root-cp_right-lines_g-right-lines_hsrfln1xzglqh-fill" data-item-order="-304106" transform="translate(350, 374)"></g><g id="g-root-cp_left-lines_g-left-lines_dcxxh71xzgmir-fill" data-item-order="-304102" transform="translate(182, 374)"></g><g id="g-root-tx_objectre_1q7kxx71xzgljh-fill" data-item-order="0" transform="translate(74, 38)"><g id="tx_objectre_1q7kxx71xzgljh-fill" stroke="none" fill="#484848"><g><text style="font: bold 25px &quot;Roboto&quot;, sans-serif; white-space: pre;" font-weight="bold" font-size="25px" font-family="'Roboto', sans-serif"><tspan x="12.63" y="40.5" dominant-baseline="ideographic">Object-Relational Model Enhances Data </tspan><tspan x="160.84" y="70.5" dominant-baseline="ideographic">Management</tspan></text></g></g></g><g id="g-root-tx_simpleda_v5gw571xzgmbq-fill" data-item-order="0" transform="translate(62, 129)"><g id="tx_simpleda_v5gw571xzgmbq-fill" stroke="none" fill="#484848"><g><text style="font: 20px &quot;Roboto&quot;, sans-serif; white-space: pre;" font-size="20px" font-family="'Roboto', sans-serif"><tspan x="20.6" y="34" dominant-baseline="ideographic">Simple Data </tspan><tspan x="48.5" y="58" dominant-baseline="ideographic">Handling</tspan></text></g></g></g><g id="g-root-ic_shar_8yzum31xzgljj-fill" data-item-order="0" transform="translate(194, 129)"></g><g id="g-root-ic_serv_1d1488r1xzi0oz-fill" data-item-order="0" transform="translate(362, 153)"></g><g id="g-root-tx_complexd_1urrrnf1xzi1hm-fill" data-item-order="0" transform="translate(422, 153)"><g id="tx_complexd_1urrrnf1xzi1hm-fill" stroke="none" fill="#484848"><g><text style="font: 20px &quot;Roboto&quot;, sans-serif; white-space: pre;" font-size="20px" font-family="'Roboto', sans-serif"><tspan x="12" y="34" dominant-baseline="ideographic">Complex Data </tspan><tspan x="12" y="58" dominant-baseline="ideographic">Structures</tspan></text></g></g></g><g id="g-root-tx_ineffici_vagou31xzglqj-fill" data-item-order="0" transform="translate(86, 213)"><g id="tx_ineffici_vagou31xzglqj-fill" stroke="none" fill="#484848"><g><text style="font: 20px &quot;Roboto&quot;, sans-serif; white-space: pre;" font-size="20px" font-family="'Roboto', sans-serif"><tspan x="16.32" y="34" dominant-baseline="ideographic">Inefficient </tspan><tspan x="36.03" y="58" dominant-baseline="ideographic">Queries</tspan></text></g></g></g><g id="g-root-ic_1_hzmnjv1xzgk5o-fill" data-item-order="0" transform="translate(194, 213)"></g><g id="g-root-ic_stca_dj6ocb1xzi1hp-fill" data-item-order="0" transform="translate(362, 225)"></g><g id="g-root-tx_efficien_qun6pn1xzhzws-fill" data-item-order="0" transform="translate(422, 237)"><g id="tx_efficien_qun6pn1xzhzws-fill" stroke="none" fill="#484848"><g><text style="font: 20px &quot;Roboto&quot;, sans-serif; white-space: pre;" font-size="20px" font-family="'Roboto', sans-serif"><tspan x="12" y="34" dominant-baseline="ideographic">Efficient Queries</tspan></text></g></g></g><g id="g-root-tx_limitedt_1cw4fjv1xzi1a8-fill" data-item-order="0" transform="translate(38, 297)"><g id="tx_limitedt_1cw4fjv1xzi1a8-fill" stroke="none" fill="#484848"><g><text style="font: 20px &quot;Roboto&quot;, sans-serif; white-space: pre;" font-size="20px" font-family="'Roboto', sans-serif"><tspan x="19.08" y="34" dominant-baseline="ideographic">Limited Timing </tspan><tspan x="81.4" y="58" dominant-baseline="ideographic">Support</tspan></text></g></g></g><g id="g-root-ic_2_zlae9n1xzhzpd-fill" data-item-order="0" transform="translate(194, 297)"></g><g id="g-root-ic_cloc_v5gw571xzjdvm-fill" data-item-order="0" transform="translate(362, 297)"></g><g id="g-root-tx_betterti_1cw4fjv1xzjeo9-fill" data-item-order="0" transform="translate(422, 297)"><g id="tx_betterti_1cw4fjv1xzjeo9-fill" stroke="none" fill="#484848"><g><text style="font: 20px &quot;Roboto&quot;, sans-serif; white-space: pre;" font-size="20px" font-family="'Roboto', sans-serif"><tspan x="12" y="34" dominant-baseline="ideographic">Better Timing </tspan><tspan x="12" y="58" dominant-baseline="ideographic">Support</tspan></text></g></g></g><g id="g-root-tx_relation_6h7sr1xzjf2e-fill" data-item-order="0" transform="translate(56, 446)"><g id="tx_relation_6h7sr1xzjf2e-fill" stroke="none" fill="#484848"><g><text style="font: 20px &quot;Roboto&quot;, sans-serif; white-space: pre;" font-size="20px" font-family="'Roboto', sans-serif"><tspan x="13.57" y="34" dominant-baseline="ideographic">Relational Model</tspan></text></g></g></g><g id="g-root-tx_objectre_1d1488r1xzje33-fill" data-item-order="0" transform="translate(362, 446)"><g id="tx_objectre_1d1488r1xzje33-fill" stroke="none" fill="#484848"><g><text style="font: 20px &quot;Roboto&quot;, sans-serif; white-space: pre;" font-size="20px" font-family="'Roboto', sans-serif"><tspan x="12.1" y="34" dominant-baseline="ideographic">Object-Relational Model</tspan></text></g></g></g><g id="g-root-cp_5_g-5_1cuvhdn1xzgky2-stroke" data-item-order="-304117" transform="translate(218, 393)"><g id="cp_5_g-5_1cuvhdn1xzgky2-stroke" fill="none" stroke-linecap="round" stroke-linejoin="round" stroke-miterlimit="4" stroke="#484848" stroke-width="2"><g><path d="M 178 10L 178 24.9777C 178 29.3949 174.42 32.9762 170.0028 32.9777L 107 33M 10 10L 10 25.0254C 10 29.4437 13.5817 33.0254 18 33.0254L 82 33.0255"></path></g></g></g><g id="g-root-cp_4_g-4_zjez0b1xzgmj0-stroke" data-item-order="-304114" transform="translate(290, 404)"><g id="cp_4_g-4_zjez0b1xzgmj0-stroke" fill="none" stroke-linecap="round" stroke-linejoin="round" stroke-miterlimit="4" stroke="#484848" stroke-width="2"><g><path d="M 22.043 10C 28.6943 10 34.0869 15.3726 34.0869 22C 34.0869 28.6274 28.6943 34 22.043 34C 15.3918 33.9999 10 28.6273 10 22C 10 15.3727 15.3918 10.0001 22.043 10ZM 22 16C 18.6863 16 16 18.6863 16 22C 16 25.3137 18.6863 28 22 28C 25.3137 28 28 25.3137 28 22C 28 18.6863 25.3137 16 22 16Z"></path></g></g></g><g id="g-root-cp_3_g-3_m8kxq31xzgky6-stroke" data-item-order="-304110" transform="translate(254.00003051757812, 425.326171875)"><g id="cp_3_g-3_m8kxq31xzgky6-stroke" fill="none" stroke-linecap="round" stroke-linejoin="round" stroke-miterlimit="4" stroke="#484848" stroke-width="2"><g><path d="M 21.999969 78.6744L 93.999969 78.6744C 93.999969 78.6744 73.991769 28.1666 65.958669 10.0582C 63.725269 11.9521 61.073269 12.9969 58.043169 12.9969C 54.986369 12.9969 52.287669 11.9334 50.071969 10C 42.046969 28.1148 21.999969 78.6744 21.999969 78.6744Z"></path></g></g><g id="cp_3_g-3_m8kxq31xzgky6-stroke" fill="none" stroke-linecap="round" stroke-linejoin="round" stroke-miterlimit="4" stroke="#484848" stroke-width="2"><g><path d="M 17.999993 78.678955C 13.581793 78.678955 10.000093 82.260655 9.999993 86.678855L 9.999993 88.678955C 9.999993 89.783555 10.895393 90.678955 11.999993 90.678955L 103.999993 90.678955C 105.104493 90.678955 105.999993 89.783555 105.999993 88.678955L 105.999993 86.678955C 105.999993 82.260655 102.418193 78.678955 97.999993 78.678955L 17.999993 78.678955ZM 57.999969 70.678955C 59.457069 70.678955 60.823269 71.068555 61.999969 71.749255L 61.999969 62.678955L 57.999969 58.678955L 53.999969 62.678955L 53.999969 71.749255C 55.176669 71.068555 56.542769 70.678955 57.999969 70.678955ZM 65.999969 78.678955C 65.999969 75.717855 64.391169 73.132455 61.999969 71.749255C 60.823269 71.068555 59.457069 70.678955 57.999969 70.678955C 56.542769 70.678955 55.176669 71.068555 53.999969 71.749255C 51.608769 73.132455 49.999969 75.717855 49.999969 78.678955L 65.999969 78.678955ZM 58.000039 49.678955L 58.000039 55.478955M 78.503039 58.175955L 74.404339 62.274655M 37.497039 58.175955L 41.595739 62.274655M 64.747339 53.468255L 64.003039 56.261955M 44.940339 56.078255L 46.400039 58.591655M 71.030739 56.068655L 69.590339 58.572255M 51.223739 53.477955L 51.977739 56.271655"></path></g></g></g><g id="g-root-cp_right-lines_g-right-lines_hsrfln1xzglqh-stroke" data-item-order="-304106" transform="translate(350, 374)"><g id="cp_right-lines_g-right-lines_hsrfln1xzglqh-stroke" fill="none" stroke-linecap="round" stroke-linejoin="round" stroke-miterlimit="4" stroke="#3cc583" stroke-width="2"><g><path d="M 10 11.8C 10 10.8059 10.8059 10 11.8 10L 80.2 10C 81.1941 10 82 10.8059 82 11.8C 82 20.747 74.747 28 65.8 28L 26.2 28C 17.253 28 10 20.747 10 11.8Z"></path></g></g></g><g id="g-root-cp_left-lines_g-left-lines_dcxxh71xzgmir-stroke" data-item-order="-304102" transform="translate(182, 374)"><g id="cp_left-lines_g-left-lines_dcxxh71xzgmir-stroke" fill="none" stroke-linecap="round" stroke-linejoin="round" stroke-miterlimit="4" stroke="#e55753" stroke-width="2"><g><path d="M 10 11.8C 10 10.8059 10.8059 10 11.8 10L 80.2 10C 81.1941 10 82 10.8059 82 11.8C 82 20.747 74.747 28 65.8 28L 26.2 28C 17.253 28 10 20.747 10 11.8Z"></path></g></g></g><g id="g-root-tx_objectre_1q7kxx71xzgljh-stroke" data-item-order="0" transform="translate(74, 38)"></g><g id="g-root-tx_simpleda_v5gw571xzgmbq-stroke" data-item-order="0" transform="translate(62, 129)"></g><g id="g-root-ic_shar_8yzum31xzgljj-stroke" data-item-order="0" transform="translate(194, 129)"><g id="ic_shar_8yzum31xzgljj-stroke" fill="none" stroke-linecap="round" stroke-linejoin="round" stroke-miterlimit="4" stroke="#484848" stroke-width="2"><g><path d="M 37.578003 11L 54.956001 11C 54.956001 11 57 11 57 13.044L 57 29.4C 57 29.4 57 31.444 54.956001 31.444L 37.578003 31.444C 37.578003 31.444 35.534 31.444 35.534 29.4L 35.534 13.044C 35.534 13.044 35.534 11 37.578003 11M 35.534 17.962L 57 17.962M 35.534 24.704L 57 24.704M 45.242001 17.962L 45.242001 31.444M 50.998001 17.962L 50.998001 31.444M 20.200001 23.6L 15.6 28L 15.6 23.6C 15.665619 20.278273 18.4123 17.639059 21.734001 17.706001L 29.4 17.705999M 11 23.6L 15.6 28.01M 24.799999 13.29L 29.4 17.705999L 24.799999 22.122M 13.044 33.487999L 24.290001 33.487999C 24.290001 33.487999 26.334 33.487999 26.334 35.532001L 26.334 54.956001C 26.334 54.956001 26.334 57 24.290001 57L 13.044 57C 13.044 57 11 57 11 54.956001L 11 35.532001C 11 35.532001 11 33.487999 13.044 33.487999M 11 50.866001L 26.334 50.866001"></path></g></g></g><g id="g-root-ic_serv_1d1488r1xzi0oz-stroke" data-item-order="0" transform="translate(362, 153)"><g id="ic_serv_1d1488r1xzi0oz-stroke" fill="none" stroke-linecap="round" stroke-linejoin="round" stroke-miterlimit="4" stroke="#484848" stroke-width="2"><g><path d="M 33.900002 29.300039C 38.318199 29.300039 41.900002 27.50918 41.900002 25.300041C 41.900002 23.0909 38.318199 21.300041 33.900002 21.300041C 29.481621 21.300041 25.8999 23.0909 25.8999 25.300041C 25.8999 27.50918 29.481621 29.300039 33.900002 29.300039ZM 25.8999 25.300041L 25.8999 32.099998C 25.8999 34.299999 29.499901 36.099998 33.900002 36.099998C 38.299999 36.099998 41.900002 34.299999 41.900002 32.099998L 41.900002 25.300041M 25.8999 32.299999L 25.8999 39.099998C 25.8999 41.299999 29.499901 43.099998 33.900002 43.099998C 38.299999 43.099998 41.900002 41.299999 41.900002 39.099998L 41.900002 32.299999M 11.5 17.5L 11.5 11.5L 17.5 11.5M 10 10M 11.5 11.5L 18.5 18.5M 56.5 17.5L 56.5 11.5L 50.5 11.5M 10 10M 56.5 11.5L 49.5 18.5M 11.5 50.5L 11.5 56.5L 17.5 56.5M 10 10M 11.5 56.5L 18.5 49.5M 56.5 50.5L 56.5 56.5L 50.5 56.5M 10 10M 56.5 56.5L 49.5 49.5M 45.900002 43.700001C 50.700001 41.5 53.900002 38.099998 53.900002 34.099998C 53.900002 30.9 51.700001 27.89996 48.099998 25.699959M 20.09992 25.5C 16.299919 27.700001 13.8999 30.700001 13.8999 34.099998C 13.8999 38.099998 17.099899 41.5 21.8999 43.700001"></path></g></g></g><g id="g-root-tx_complexd_1urrrnf1xzi1hm-stroke" data-item-order="0" transform="translate(422, 153)"></g><g id="g-root-tx_ineffici_vagou31xzglqj-stroke" data-item-order="0" transform="translate(86, 213)"></g><g id="g-root-ic_1_hzmnjv1xzgk5o-stroke" data-item-order="0" transform="translate(194, 213)"><g id="ic_1_hzmnjv1xzgk5o-stroke" fill="none" stroke-linecap="round" stroke-linejoin="round" stroke-miterlimit="4" stroke="#484848" stroke-width="2"><g><path d="M 35 44.057999C 35 49.060593 39.055405 53.115997 44.057999 53.115997C 49.060593 53.115997 53.115997 49.060593 53.115997 44.057999C 53.115997 39.055405 49.060593 35 44.057999 35C 39.055405 35 35 39.055405 35 44.057999ZM 57 57L 50.504002 50.504002M 21 51L 27 51M 27.002001 41L 27.002001 51M 16.5 50C 16.223858 50 16 50.223858 16 50.5C 16 50.776142 16.223858 51 16.5 51C 16.776142 51 17 50.776142 17 50.5C 17 50.223858 16.776142 50 16.5 50L 16.5 50M 11.5 50C 11.223858 50 11 50.223858 11 50.5C 11 50.776142 11.223858 51 11.5 51C 11.776142 51 12 50.776142 12 50.5C 12 50.223858 11.776142 50 11.5 50L 11.5 50M 18.5 35.5C 18.223858 35.5 18 35.723858 18 36C 18 36.276142 18.223858 36.5 18.5 36.5C 18.776142 36.5 19 36.276142 19 36C 19 35.723858 18.776142 35.5 18.5 35.5L 18.5 35.5M 23.5 35.5C 23.223858 35.5 23 35.723858 23 36C 23 36.276142 23.223858 36.5 23.5 36.5C 23.776142 36.5 24 36.276142 24 36C 24 35.723858 23.776142 35.5 23.5 35.5L 23.5 35.5M 37 31L 16 31C 13.238577 31 11 33.238579 11 36C 11 38.761425 13.238577 41 16 41L 29 41M 18.5 25.5C 18.223858 25.5 18 25.723858 18 26C 18 26.276142 18.223858 26.5 18.5 26.5C 18.776142 26.5 19 26.276142 19 26C 19 25.723858 18.776142 25.5 18.5 25.5L 18.5 25.5M 23.5 25.5C 23.223858 25.5 23 25.723858 23 26C 23 26.276142 23.223858 26.5 23.5 26.5C 23.776142 26.5 24 26.276142 24 26C 24 25.723858 23.776142 25.5 23.5 25.5L 23.5 25.5M 45 26C 45 23.238577 42.761425 21 40 21L 16 21C 13.238577 21 11 23.238577 11 26C 11 28.761423 13.238577 31 16 31L 37 31M 18.5 15.5C 18.223858 15.5 18 15.723858 18 16C 18 16.276142 18.223858 16.5 18.5 16.5C 18.776142 16.5 19 16.276142 19 16C 19 15.723858 18.776142 15.5 18.5 15.5L 18.5 15.5M 23.5 15.5C 23.223858 15.5 23 15.723858 23 16C 23 16.276142 23.223858 16.5 23.5 16.5C 23.776142 16.5 24 16.276142 24 16C 24 15.723858 23.776142 15.5 23.5 15.5L 23.5 15.5M 45 16C 45 13.238576 42.761425 11 40 11L 16 11C 13.238577 11 11 13.238577 11 16C 11 18.761425 13.238577 21 16 21L 40 21C 42.761425 21 45 18.761425 45 16Z"></path></g></g></g><g id="g-root-ic_stca_dj6ocb1xzi1hp-stroke" data-item-order="0" transform="translate(362, 225)"><g id="ic_stca_dj6ocb1xzi1hp-stroke" fill="none" stroke-linecap="round" stroke-linejoin="round" stroke-miterlimit="4" stroke="#484848" stroke-width="2"><g><path d="M 57 15.826C 48.948002 15.634 29.712 16.6 29.712 23.799999C 29.712 31 57 30.261999 57 41.068001C 57 51.874001 40.818001 56.212002 33.75 56.212002M 36.799999 11.788C 32.762001 11.788 12.568 14.488 12.568 22.894001C 12.568 32.493999 34.781998 31.441999 34.781998 41.068001C 34.781998 47.779999 19.636 49.146 12.568 49.146M 52.264 24.068001C 52.265812 22.755413 51.420662 21.591537 50.171967 21.187012C 48.923271 20.782486 47.556198 21.229692 46.787998 22.293999C 46.107773 20.889557 44.675888 20.005989 43.115536 20.027851C 41.555183 20.049713 40.148613 20.973049 39.508003 22.396C 39.082886 22.170172 38.609367 22.050762 38.127998 22.048C 37.047031 22.046879 36.047558 22.622471 35.506001 23.558001M 29.344 39.482002C 28.390308 39.644718 27.572308 40.254501 27.143999 41.122002C 26.242922 39.848537 24.686172 39.211746 23.150923 39.488621C 21.615673 39.765495 20.379452 40.905991 19.98 42.414001C 19.52285 42.261868 19.035782 42.22208 18.560001 42.298M 23.948 39.424C 23.55946 37.466984 21.983751 35.964798 20.010416 35.670143C 18.037083 35.375488 16.091282 36.351849 15.148 38.110001C 14.327509 36.581245 12.735015 35.625286 11 35.620003M 56.506001 25.237999C 56.169502 25.400408 55.866299 25.624249 55.612 25.898001C 54.596375 24.53734 52.835979 23.960575 51.21209 24.45644C 49.5882 24.952305 48.450287 26.414085 48.368 28.110001C 47.177738 27.233843 45.603104 27.080296 44.265999 27.709999"></path></g></g></g><g id="g-root-tx_efficien_qun6pn1xzhzws-stroke" data-item-order="0" transform="translate(422, 237)"></g><g id="g-root-tx_limitedt_1cw4fjv1xzi1a8-stroke" data-item-order="0" transform="translate(38, 297)"></g><g id="g-root-ic_2_zlae9n1xzhzpd-stroke" data-item-order="0" transform="translate(194, 297)"><g id="ic_2_zlae9n1xzhzpd-stroke" fill="none" stroke-linecap="round" stroke-linejoin="round" stroke-miterlimit="4" stroke="#484848" stroke-width="2"><g><path d="M 23.236 33.992001L 34.007999 33.992001L 41.841999 43.784M 46.245998 50.638C 46.245712 52.287327 47.582672 53.624523 49.231998 53.624523C 50.881325 53.624523 52.218288 52.287327 52.217999 50.638C 52.218288 48.988674 50.881325 47.651478 49.231998 47.651478C 47.582672 47.651478 46.245712 48.988674 46.245998 50.638M 12.23 28.426001C 12.854139 25.954893 13.894326 23.608047 15.306 21.486M 20.09 16.336C 22.079926 14.739687 24.338631 13.511113 26.76 12.708M 33.683998 11.508C 36.231365 11.48674 38.76498 11.883335 41.183998 12.682M 47.400002 15.946C 49.446419 17.465603 51.226006 19.314804 52.666 21.417999M 55.624001 27.799999C 56.326744 30.250824 56.611397 32.802563 56.466 35.348M 54.958 42.209999C 54.081425 44.47942 52.809025 46.575256 51.199997 48.399998M 42.366001 54.888C 35.434166 57.655064 27.581539 56.806618 21.400723 52.62278C 15.219908 48.438942 11.51455 41.463707 11.507999 34"></path></g></g></g><g id="g-root-ic_cloc_v5gw571xzjdvm-stroke" data-item-order="0" transform="translate(362, 297)"><g id="ic_cloc_v5gw571xzjdvm-stroke" fill="none" stroke-linecap="round" stroke-linejoin="round" stroke-miterlimit="4" stroke="#484848" stroke-width="2"><g><path d="M 41.835999 43.352001C 41.835705 45.026737 43.193264 46.384533 44.868 46.384533C 46.542736 46.384533 47.900295 45.026737 47.900002 43.352001C 47.900295 41.677265 46.542736 40.319466 44.868 40.319466C 43.193264 40.319466 41.835705 41.677265 41.835999 43.352001M 47.444 31.618L 48.338001 34.556C 48.64032 35.570786 49.681187 36.17408 50.712002 35.931999L 53.688 35.242001C 54.846245 34.981133 56.039349 35.50515 56.630913 36.534534C 57.222477 37.563919 57.074535 38.858601 56.265999 39.728001L 54.181999 41.973999C 53.462158 42.750885 53.462158 43.951115 54.181999 44.728001L 56.265999 46.976002C 57.075802 47.844814 57.224419 49.140121 56.632442 50.169769C 56.040462 51.199413 54.846275 51.722698 53.688004 51.460003L 50.712002 50.77C 49.680599 50.528091 48.639481 51.132412 48.338001 52.147999L 47.444 55.084C 47.102047 56.220905 46.055218 56.999199 44.868004 56.999199C 43.680786 56.999199 42.633957 56.220905 42.292004 55.084003L 41.400002 52.147999C 41.098518 51.132412 40.057404 50.528091 39.026001 50.77L 36.049999 51.459999C 34.892086 51.721451 33.698967 51.197712 33.107643 50.168407C 32.516323 49.139107 32.664879 47.844593 33.473999 46.976002L 35.556 44.728001C 36.275841 43.951115 36.275841 42.750885 35.556 41.973999L 33.473999 39.728001C 32.663025 38.859653 32.513355 37.563873 33.105019 36.533512C 33.696686 35.503151 34.891258 34.979279 36.050003 35.242001L 39.026001 35.931999C 40.056816 36.17408 41.097679 35.570786 41.400002 34.556L 42.293999 31.618C 42.637051 30.482767 43.683067 29.706123 44.869003 29.706123C 46.054935 29.706123 47.100952 30.482767 47.444004 31.618002ZM 27.073999 51.014C 17.286213 48.962051 10.468275 40.063789 11.033554 30.079214C 11.598832 20.094637 19.377537 12.022768 29.334379 11.088661C 39.291222 10.154555 48.435516 16.638784 50.848 26.344M 30.426001 20.098L 30.426001 31.040001L 23.132 36.510002"></path></g></g></g><g id="g-root-tx_betterti_1cw4fjv1xzjeo9-stroke" data-item-order="0" transform="translate(422, 297)"></g><g id="g-root-tx_relation_6h7sr1xzjf2e-stroke" data-item-order="0" transform="translate(56, 446)"></g><g id="g-root-tx_objectre_1d1488r1xzje33-stroke" data-item-order="0" transform="translate(362, 446)"></g></g></g><path id="w1usf16j1xzm7t2" d="M65.283 12.757a.35.35 0 0 0 .584.157l5.203-5.141-6.183 3.523.396 1.461zm-2.216-11.7a.35.35 0 0 0-.522.305v3.111l3.276-1.868-2.754-1.548zm3.728 2.105l-4.25 2.421v2.445l6.391-3.644-2.141-1.222zm4.708 3.303a.35.35 0 0 0 0-.609l-1.592-.9-7.365 4.199v1.782a.35.35 0 0 0 .523.305l8.435-4.777z M44.542 2.513c0-.433.355-.783.792-.783s.792.35.792.783-.355.783-.792.783-.792-.35-.792-.783zm59.171 0c0-.433.355-.783.792-.783s.792.35.792.783-.355.783-.792.783-.792-.35-.792-.783zm-85.951 7.636h-1.27v-.487c-.276.201-.864.609-1.881.609-1.202 0-2.274-.794-2.137-2.078.118-1.106 1.153-1.584 1.848-1.727l2.17-.345c0-.539-.29-.956-1.064-1.006s-1.21.305-1.571 1.017l-1.124-.605c1.218-2.631 5.029-1.764 5.029.414v4.207zm-1.27-2.86c.006.396-.062 1.112-.819 1.59-.587.37-1.841.299-1.903-.395-.049-.555.461-.791.906-.898l1.816-.297zm72.662 2.86h-1.27v-.487c-.276.201-.864.609-1.881.609-1.202 0-2.274-.794-2.137-2.078.118-1.106 1.153-1.584 1.848-1.727l2.17-.345c0-.539-.29-.956-1.064-1.006s-1.21.305-1.571 1.017l-1.124-.605c1.218-2.631 5.029-1.764 5.029.414v4.207zm-1.27-2.86c.006.396-.062 1.112-.82 1.59-.587.37-1.841.299-1.903-.395-.049-.555.461-.791.906-.898l1.816-.297zM99.096 10.149H97.85v-8.45h1.246v4.895l2.68-2.559h1.738l-2.633 2.535 2.715 3.578h-1.556l-2.077-2.707-.867.844v1.863zm6.053-6.114h-1.255v6.113h1.255V4.035zm-59.2 0h-1.255v6.113h1.255V4.035zm5.584 6.113V1.697h1.255v2.695c.361-.346 1-.485 1.47-.485 1.452 0 2.477 1.082 2.457 2.448v3.792h-1.27v-3.68c0-.408-.214-1.339-1.315-1.339-.968 0-1.342.756-1.342 1.339v3.681h-1.255zm-4.76-4.894V4.039h.621a.45.45 0 0 0 .45-.45v-.855h1.251v1.305h1.309v1.215h-1.309v3.109c0 .293.105.664.648.664.365 0 .531-.035.736-.07v1.137s-.361.113-.857.113c-1.398 0-1.777-1.051-1.777-1.788V5.254h-1.071zM36.528 4.039h-1.394l2.191 6.106h1.125l1.234-3.918 1.238 3.918h1.129l2.188-6.106h-1.383l-1.359 3.93-1.256-3.93h-1.124l-1.242 3.957-1.348-3.957zM26.212 7.141c-.02 1.566 1.187 3.129 3.223 3.129 1.566 0 2.383-.918 2.734-1.719L31.172 8c-.315.399-.801 1.094-1.738 1.094-1.145 0-1.825-.781-1.891-1.52h4.625c.074-.284.148-.995-.03-1.559-.336-1.064-1.221-2.102-2.839-2.102s-3.088 1.152-3.088 3.227zm1.363-.75h3.348c-.055-.43-.566-1.301-1.623-1.301a1.79 1.79 0 0 0-1.725 1.301zm-8.758.75c.038 1.758 1.277 3.133 3.145 3.133 1.074 0 1.723-.477 1.961-.672v.547h1.242V1.703h-1.258v2.888c-.414-.36-1.062-.68-1.93-.68-1.91 0-3.198 1.473-3.16 3.23zm1.309-.08c0 1.119.723 1.978 1.836 1.978a1.88 1.88 0 0 0 1.94-1.904c0-1.371-1.011-1.99-1.972-1.99s-1.805.798-1.805 1.916zm76.683-.028C96.771 5.275 95.532 3.9 93.664 3.9c-1.074 0-1.723.477-1.961.672v-.547h-1.242v8.22h1.258V9.583c.414.36 1.063.68 1.93.68 1.91 0 3.198-1.473 3.16-3.23zm-1.309.08c0-1.119-.723-1.978-1.836-1.978a1.88 1.88 0 0 0-1.94 1.904c0 1.371 1.011 1.99 1.972 1.99S95.5 8.231 95.5 7.113zM106.441 10.173V4.036h1.254v.382c.361-.346 1-.485 1.47-.485 1.452 0 2.477 1.082 2.457 2.448v3.792h-1.27V6.492c0-.408-.214-1.339-1.315-1.339-.969 0-1.342.756-1.342 1.339v3.681h-1.254zm-30.383-.021V1.824h1.084l4.215 5.777V1.824h1.32v8.328h-1.094l-4.207-5.796v5.796h-1.319zM5.24 10.149H4V2.377h1.014l2.664 3.597 2.654-3.592h1.03v7.766h-1.256V4.762L7.678 8.068 5.24 4.742v5.407z" transform="translate(488, 590)" fill="#80808088" stroke="none"></path></svg>